<svg width="129" height="128" viewBox="0 0 129 128" fill="none" xmlns="http://www.w3.org/2000/svg">
<path d="M67.2997 119.645C36.2669 119.645 11.2163 94.5943 11.2163 63.5615C11.2163 32.5287 36.2669 7.47815 67.2997 7.47815C98.3325 7.47815 123.383 32.5287 123.383 63.5615C123.383 94.5943 98.3325 119.645 67.2997 119.645Z" fill="white"/>
<path d="M61.6531 123.177C62.9246 122.803 60.9265 121.681 62.5613 122.616C62.3797 123.177 62.198 123.738 61.6531 123.177Z" fill="white"/>
<path d="M66.9209 122.055C67.4658 121.494 67.8291 121.12 68.3741 120.746C68.919 120.372 69.464 119.998 70.0089 119.812C71.0988 119.438 72.1886 119.251 73.4601 119.251C74.7317 119.064 75.8215 118.877 77.0931 118.503C77.638 118.316 78.1829 118.129 78.7279 117.755C79.2728 117.381 79.6361 117.007 80.1811 116.447C80.5444 116.073 80.726 118.69 81.8159 117.755C82.5424 116.634 83.6323 115.699 84.7222 114.951C85.8121 114.203 87.0836 113.455 88.3551 113.082C91.0798 111.96 94.1678 111.399 97.0741 110.651L97.2558 111.399C98.3456 111.025 98.164 108.595 99.0722 108.221C99.4355 108.595 99.2539 108.969 99.7988 109.156C99.2539 108.034 100.889 107.286 100.525 106.352C101.252 106.352 101.797 107.286 102.705 107.286L102.16 105.791C101.615 103.921 102.342 103.174 103.25 102.613C104.158 101.865 105.43 101.304 105.43 99.8085C105.611 100.182 105.611 100.556 105.975 100.556C106.156 98.3129 107.246 96.4435 108.155 94.3871C109.063 92.3307 110.153 90.4613 110.516 88.4049C110.879 88.7788 111.606 89.3396 112.332 89.3396C111.061 88.4049 111.242 87.0963 111.424 85.9746C113.059 86.1616 110.698 83.7313 111.969 82.7965L112.332 82.9835C111.061 81.4879 113.785 82.0487 112.151 80.5532L113.604 80.3663C111.606 79.2446 115.057 79.4315 114.149 78.3099L113.786 78.1229C113.422 77.1882 114.694 77.1882 114.33 76.4404H114.512C114.33 74.7579 115.602 74.0102 113.967 73.8232C115.42 73.4493 114.33 75.5057 116.51 74.9448C115.784 69.1496 116.329 63.9151 115.784 58.4937C116.329 57.746 116.51 57.3721 117.237 57.1851C116.874 56.6243 116.692 55.1287 115.602 54.7548C115.602 54.9418 116.51 54.194 116.51 54.0071C117.055 52.8854 114.512 53.2593 115.057 52.1376C115.602 52.5115 116.147 52.5115 116.873 52.1376C115.239 51.5768 115.239 50.2682 114.512 49.3335C114.875 49.3335 115.057 49.7074 115.602 49.5204C113.786 48.7726 115.42 47.2771 114.149 46.5293H115.239C115.784 44.4729 113.059 46.7162 113.241 45.2207C113.604 45.4076 113.967 45.2207 114.33 45.0337C112.151 44.4729 111.969 42.0426 110.879 41.1079C111.061 41.1079 111.242 40.921 111.242 40.921C110.334 39.7993 110.334 37.9298 108.881 36.9951C109.063 36.2473 111.061 35.8734 109.971 34.7518C108.336 35.8734 107.973 32.8823 106.52 34.9387C106.156 33.6301 105.43 31.5737 104.522 31.1998C105.43 31.1998 106.156 29.1435 106.883 29.8912L107.428 28.3956C108.155 28.0218 107.791 29.3304 108.336 28.3956C107.973 28.0218 106.338 27.087 106.156 26.5262C104.522 26.5262 102.16 27.4609 100.889 26.3392C101.979 26.3392 102.16 24.4698 102.887 24.6568C101.434 25.0306 99.9804 25.4045 98.5272 25.7784C98.164 25.4045 99.6171 24.4698 98.7089 24.4698C98.3456 24.8437 97.9824 24.8437 97.4374 25.0307C97.4374 24.6568 95.6209 23.909 96.7108 22.2265C97.0741 21.4787 97.619 22.4135 97.619 21.4787C96.8924 20.731 96.3475 21.2917 95.621 20.7309L95.8026 20.544C95.4393 19.9832 93.8045 19.9832 93.6228 21.4787C93.9861 21.8526 94.1678 20.3571 94.3494 21.2918C93.2595 22.0396 92.1697 21.4787 91.4431 20.9179C91.8064 20.9179 92.1697 20.357 92.533 19.9831C90.5349 20.544 89.2633 20.357 87.6285 20.1701C87.0836 20.9179 88.9 18.8615 88.9 19.4223C88.5368 18.3007 87.4469 18.3006 86.5387 18.1137C85.6304 18.1137 84.7222 17.9268 84.3589 16.8051C84.7222 16.8051 83.8139 18.1137 83.9956 17.9268C83.269 17.3659 83.8139 16.2443 83.0873 16.4312C83.269 15.6834 82.3608 16.2443 81.6342 16.4312C81.0893 16.8051 81.6342 16.0573 82.1791 16.0573C81.6342 16.2443 80.5443 16.4312 79.4544 16.2442C78.3646 16.0573 77.0931 15.6834 76.3665 14.9356C76.1848 15.4965 74.7317 16.6182 74.3684 16.4312L74.9133 15.3095C74.7316 14.3748 73.4602 15.1226 73.6418 14.0009C72.3703 15.3095 77.2747 13.627 75.8215 14.3748C75.8215 13.2531 73.6418 15.8704 74.3684 14.3748C73.4601 14.1879 72.5519 15.3095 71.8253 14.1879C72.007 14.3748 72.9152 12.5054 72.1886 12.5054C70.9171 12.5054 71.6437 13.0662 70.7355 13.2532L70.0089 13.627C69.8272 14.9356 68.919 13.2532 69.2823 14.7487C69.2823 13.627 67.4658 15.1226 67.8291 13.0662L68.1924 11.3837C67.6475 11.3837 67.1025 13.0662 66.7392 13.814C66.7392 13.627 66.5576 13.2531 66.5576 13.0662C66.376 15.4965 65.2861 12.8793 64.5595 14.7487C64.0146 14.3748 63.288 14.1879 62.7431 14.0009C62.1981 14.0009 61.6531 13.814 61.2899 13.0662C60.3816 13.814 59.8367 14.7487 58.7468 14.3748C58.9285 14.1879 59.1101 14.0009 59.1101 13.4401C58.3836 12.6923 58.3835 13.4401 57.8386 13.814C57.8386 13.4401 56.5671 12.5054 55.6589 11.7576C54.9323 12.6923 55.4772 14.0009 55.4772 14.7487C54.3873 12.5054 53.4791 16.6182 52.2076 14.7487C52.3892 14.3748 53.1158 13.2532 52.3892 12.8793C51.1177 10.6359 51.2994 15.1226 49.8462 14.1879L50.5728 16.0573C49.6645 14.9357 49.1196 17.5529 48.7563 15.6834C48.5747 16.4312 47.1215 15.4965 47.8481 17.3659C46.7582 16.992 45.6683 17.5529 44.5785 17.9268C43.4886 18.3007 42.5804 18.6745 41.3088 17.3659C41.1272 17.7398 40.4006 17.7398 40.9456 18.6745C41.8538 19.4223 41.1272 17.7398 41.6721 18.3007C41.4905 18.4876 41.6721 19.0484 41.6721 19.2354C40.9455 19.0484 40.4006 19.2354 40.219 17.3659C38.4025 16.992 40.4006 20.9179 38.5842 21.2918C38.2209 20.544 38.0392 20.357 37.6759 20.7309L37.4943 22.4135C36.4044 22.7873 36.0411 21.1048 35.1329 19.9831C34.7696 20.544 34.043 20.9179 34.4063 21.8526L32.7715 20.9179C33.8614 21.6656 32.7715 21.8526 32.7715 22.4135V22.0395C32.4082 21.6657 32.0449 22.4134 31.8633 22.7873C32.4082 23.3481 33.3164 23.1612 33.6797 23.1612C33.8614 23.909 33.3164 24.0959 33.4981 24.8437C32.7715 23.722 32.0449 24.6568 31.6816 24.8437C30.955 25.0307 32.0449 26.1523 31.8633 26.3392C31.3183 25.7784 31.1367 26.9001 30.7734 25.7784C30.7734 25.4045 31.5 25.9654 31.3183 25.4045C30.7734 25.2176 30.0468 24.2829 30.0468 25.5915C30.0468 26.5262 31.8632 27.4609 30.5917 27.6479C30.5917 27.274 30.2285 26.7132 30.0468 26.1523L28.7753 26.3392L29.5019 27.274C29.1386 27.087 29.1386 26.9001 28.9569 26.9001C29.6835 28.0218 28.0487 28.2087 28.9569 29.5173C28.7753 29.8912 27.6854 29.7043 27.1405 30.0781V29.8912C26.2322 29.8912 26.0506 30.826 26.2322 31.7607L26.0506 31.5737C25.6873 31.7607 25.324 32.5084 25.6873 33.2562C24.4158 33.2562 21.8727 30.4521 22.5993 32.3215C22.0544 33.0693 23.5075 34.7518 24.4158 34.9387C23.6892 35.3126 23.3259 36.0604 23.1443 36.8082C22.781 37.5559 22.5993 38.3037 21.3278 38.3037C21.6911 38.6776 22.0544 38.8645 22.0544 39.4254C21.3278 40.1731 20.9645 41.4818 20.6012 42.4165C20.2379 43.5382 19.693 44.286 18.2398 44.6599C18.0582 43.9121 17.15 44.099 16.4234 43.9121C17.15 44.8468 15.1518 44.099 16.7867 45.0337C17.8765 45.4076 18.2398 45.5946 18.9664 45.2207C18.9664 46.7162 18.4215 48.3987 17.1499 48.7726C17.6949 48.5857 18.0582 48.9596 18.2398 49.3335C16.605 48.5857 16.0601 49.5204 16.4234 50.4551L17.5132 50.829L16.4234 51.016C16.605 51.3898 18.4215 51.9507 17.3316 52.3246C16.9683 52.3246 16.4234 52.1376 16.2417 52.3246C16.9683 53.2593 18.0582 54.5679 17.1499 55.1288L15.5151 55.5026C15.6968 55.8765 16.4233 56.6243 16.9683 56.0635C15.8784 57.1852 15.5151 58.1199 14.2436 58.4937C17.3316 61.2979 17.15 64.476 17.3316 67.2802H16.605C15.8784 68.0279 18.0582 67.4671 17.5132 68.0279C16.7866 67.841 15.8784 68.7757 14.9702 68.2149C14.2436 69.3365 16.4233 69.5235 16.9683 70.0843C18.0582 70.0843 16.2417 69.7104 17.5132 69.5235C17.8765 69.5235 16.9683 71.0191 18.6031 71.0191C18.0582 71.3929 16.7866 71.3929 16.2417 71.3929L17.1499 71.9538C15.5151 73.0754 13.517 70.6451 11.5189 71.7668L11.8822 72.3276C10.4291 73.2624 9.70247 70.8321 9.52082 72.7015C10.4291 73.2624 12.7904 73.4493 13.3354 72.7015C14.0619 74.0102 17.15 72.7015 17.3316 74.1971C16.9683 74.571 16.7866 74.1971 16.605 74.0101C16.4233 73.6362 16.2417 73.4493 15.6968 73.6363C14.4252 74.571 16.7867 74.9449 16.4234 75.5057C16.7867 74.7579 18.6031 74.9449 18.9664 75.3188C18.4215 76.2535 17.3316 75.1318 17.5132 76.2535C18.4215 76.2535 19.3297 77.0012 19.693 75.8796C21.6911 75.6926 19.3297 77.0013 21.1461 77.1882C19.8746 77.936 17.6949 77.1882 17.1499 78.4968C18.4215 77.936 19.3297 79.2446 21.1461 78.1229C20.9645 78.6838 19.8746 79.0576 18.9664 79.0576C18.4215 79.9924 21.8727 79.6185 19.3297 80.7401L20.7829 80.3663C20.4196 80.7402 20.2379 81.114 19.5113 81.6749C19.5113 81.8618 20.2379 82.2357 20.6012 82.4226C20.9645 82.6096 20.9645 82.9835 20.0563 83.3574C20.4196 83.3574 20.7829 84.666 21.8727 83.5443C22.4177 82.4226 20.4196 83.1704 22.236 82.0488C20.9645 83.1704 22.9626 82.9835 23.6892 83.1705L22.9626 83.5443C23.3259 83.7313 23.5075 84.2921 24.4158 83.9182C23.8708 83.9182 23.5075 84.2921 23.3259 84.666L24.5974 84.2921C25.6873 84.8529 22.781 85.6007 23.5075 86.3485C23.1443 86.3485 22.781 86.1615 22.236 86.1615C22.5993 86.1615 21.5094 87.0963 22.236 87.4702C23.3259 87.0963 24.7791 86.7224 25.6873 86.3485C26.4139 86.5354 24.5974 87.2832 26.0506 87.0962H24.4158C24.0525 87.0962 22.9626 88.5918 23.5075 89.3396C24.0525 89.5265 25.8689 89.3396 26.0506 88.2179C26.2322 88.5918 25.8689 89.3396 25.1423 89.7135C25.8689 90.2743 26.0506 88.9657 27.1405 89.1526C26.5955 89.9004 26.4139 91.2091 25.8689 92.5177L23.6892 93.0785L24.0525 93.6393C22.4177 94.0132 23.3259 94.761 21.6911 95.3219C21.6911 95.8827 22.4177 95.8827 23.1443 95.8827C24.5974 93.2654 26.7772 94.761 28.412 92.8915C29.6835 93.6393 24.4158 97.5652 28.412 96.2566C28.7753 95.6957 30.5917 94.9479 29.5019 94.761C29.8652 95.6957 31.6816 93.6393 31.6816 95.1349C30.4101 95.1349 30.4101 97.5652 28.5936 97.5652C29.3202 97.0043 28.5936 96.6304 28.2303 96.6304C27.8671 97.5652 26.4139 98.313 27.1405 99.0607C27.6854 99.4346 28.412 99.9955 29.1386 99.0607C30.0468 98.126 28.412 98.4999 29.6835 97.7521C30.7734 98.3129 29.5018 99.9954 31.5 98.4999C30.7734 98.126 31.6816 97.0044 32.4082 96.2566C32.7715 96.2566 33.1348 96.4435 33.3164 96.4435L32.5898 97.0043C33.1348 98.313 34.043 96.0696 34.7696 97.0043L34.043 98.8738C32.7715 99.8085 33.1348 97.0044 31.5 99.0607C32.0449 99.8085 33.1348 98.8738 33.3164 99.9955C32.9531 99.9955 32.7715 99.9955 32.5898 99.9955C32.7715 100.182 30.7734 103.174 32.9531 102.426C33.8614 102.239 33.6797 101.865 34.2246 101.117C35.4962 101.678 36.4044 101.117 37.131 101.491C35.8595 102.987 38.2209 102.613 36.4044 103.547C36.5861 102.426 35.1329 101.304 33.4981 102.426C32.9531 103.547 32.7715 103.173 32.5898 102.987C32.4082 102.613 32.0449 102.239 31.1367 102.987C32.0449 103.921 30.5917 105.604 29.8651 106.725C30.0468 107.099 30.7734 106.725 30.955 106.725C31.8633 105.791 31.5 105.417 32.4082 104.295C33.3164 105.417 34.7696 105.604 36.0411 104.856C36.0411 105.604 35.1329 106.725 34.588 106.539C36.0411 107.286 37.4943 108.221 38.5842 109.343C38.7658 106.912 40.2189 109.717 40.5822 107.847C40.2189 106.912 40.4006 105.23 41.1272 104.669C41.4905 105.043 40.5822 105.604 40.5822 105.978C41.6721 105.23 40.4006 108.221 41.8538 106.725C40.219 106.725 40.4006 108.969 39.3107 110.464C40.7639 110.09 38.7658 111.586 39.674 111.96C41.1272 111.586 42.5804 111.399 43.6702 111.586C44.3968 113.642 47.1215 112.895 48.393 113.268C48.7563 114.203 47.8481 116.073 48.393 116.634C49.3013 116.82 48.393 114.39 49.3013 115.699L49.1196 116.073C49.6646 115.699 51.1177 117.942 52.2076 115.325L51.2993 117.381C51.481 117.568 51.8443 117.194 52.026 117.007C51.8443 117.755 52.0259 118.316 51.481 118.69C52.0259 120.372 53.2974 118.69 54.2057 118.877L53.8424 117.568C55.4772 116.82 56.3854 118.316 57.8386 117.942L57.6569 119.251L58.5652 118.503C58.2019 119.625 59.1101 120.559 59.6551 119.438C58.7468 120.372 57.8386 121.494 56.9304 122.242C56.3854 121.494 57.8386 120.746 57.4753 119.625C57.2937 118.503 55.8405 118.69 55.4772 119.812C56.0222 119.998 56.0222 119.812 56.5671 119.438C56.5671 121.12 55.6588 120.933 55.1139 122.055C55.4772 122.055 55.8405 122.616 55.8405 122.055C55.1139 122.803 54.569 122.803 53.4791 122.803C54.2057 122.242 53.2975 121.681 53.6608 121.307C53.2975 122.803 52.3893 123.177 51.1177 122.429C50.5728 120.559 48.5747 122.99 47.3032 122.055C48.2114 120.746 49.3013 119.625 50.2095 119.251C49.4829 118.316 49.3012 119.064 48.5746 118.129C47.8481 119.064 47.1215 120.746 45.85 121.12L46.0316 119.999C44.9417 120.185 44.3968 121.868 43.1253 121.12C42.0354 120.372 41.1272 119.812 40.0373 119.438C39.1291 118.877 38.2209 118.316 37.3126 117.942L37.6759 116.82C36.7677 117.755 35.8595 117.568 35.1329 117.194C34.4063 116.82 33.6797 116.26 32.7715 116.26C32.0449 115.138 30.955 114.764 29.8651 114.39C28.9569 113.829 28.0487 113.269 28.2303 112.147C27.3221 111.773 26.4139 111.212 25.5057 110.838C24.5974 110.277 23.8708 109.904 22.9626 109.343C22.236 108.782 21.3278 108.221 20.6012 107.473C19.8746 106.725 19.3297 105.978 18.6031 105.043L20.2379 104.482C18.7847 104.669 20.6012 103.547 19.8746 103.173C19.5113 104.669 17.8765 103.547 16.7867 103.734C16.605 101.491 14.062 100.369 12.0639 99.6216L12.9721 98.8738C10.2474 98.6868 10.7923 95.6957 10.0658 93.8263C10.2474 93.4524 11.1556 92.5176 10.7923 91.9568C8.79423 91.7699 8.61259 91.209 6.79613 90.0874C6.2512 88.9657 5.8879 86.7224 6.25119 85.4137C5.34296 84.479 4.43473 83.5443 3.88979 82.4226C3.34485 81.301 2.98157 80.1793 2.61827 78.8707L2.07333 77.0012C1.89169 76.4404 1.89169 75.6926 1.71004 75.1318C1.34675 73.8232 0.983467 72.7015 0.43853 71.3929L1.71004 70.8321C0.983462 69.7104 0.438519 68.4018 0.256873 67.0932C0.075227 65.7846 -0.106402 64.476 0.0752436 62.9804C0.256889 60.3632 0.620164 57.746 0.256873 55.5026L2.43662 56.2504C3.34485 55.1287 2.25497 53.2593 0.620159 53.2593C0.983451 52.6985 0.983473 51.7637 0.983473 51.016C0.983473 50.2682 1.16511 49.5204 2.25499 49.3335C2.98157 48.2118 1.71004 47.464 1.71004 46.3423C2.43663 45.0337 2.98157 44.2859 3.16322 43.3512C3.52651 42.4165 3.70814 41.6687 3.88979 40.3601L3.5265 40.921C3.88979 41.2948 4.79801 41.6688 5.1613 41.1079C4.97966 40.5471 5.52462 39.7993 5.52462 39.2385C5.70626 38.6776 5.52461 38.1168 4.07145 37.9298C5.34297 36.9951 5.70625 35.3126 6.25119 33.817C6.79613 32.3215 7.52271 30.8259 8.97588 30.2651C8.24929 30.0781 8.43095 29.3304 8.24931 28.9565C8.6126 28.3957 8.97587 28.0218 9.33916 27.4609C9.8841 27.087 10.2474 26.5262 10.6107 26.1523C11.5189 25.4046 12.2455 24.4698 12.2455 23.3482C12.7904 23.3482 12.7904 24.6568 13.517 23.909C13.6987 23.3482 12.7904 23.3482 12.9721 22.4135C13.6987 20.544 15.3335 19.2354 16.9683 18.1137C18.7847 16.992 20.4196 16.2443 21.6911 14.9356C25.6873 9.7012 31.6816 6.71008 37.131 4.09285L37.3126 4.65369C37.8576 3.34508 39.1291 3.34508 40.4006 3.34508C41.6721 3.34508 42.5803 3.15814 42.9436 1.47564C43.4886 1.84953 44.7601 1.28868 44.7601 2.22341C45.3051 1.28868 46.5765 1.28868 47.6664 1.28868C48.2114 1.28868 48.9379 1.2887 49.4829 1.10175C50.0278 0.91481 50.5728 0.727866 51.1177 0.167032C50.9361 0.167032 50.7544 0.353971 50.5728 0.540915C51.8443 0.914804 52.9341 0.727848 54.024 0.353959C55.1139 -0.01993 56.2038 -0.206875 57.4753 0.353959C57.2937 0.540904 56.7487 0.727848 56.7487 1.28868C57.6569 2.22341 58.7468 -1.14159 59.4734 1.47564C60.0183 1.47564 59.8367 0.167032 59.4734 0.167032C62.1981 0.353976 64.7411 0.540904 67.6475 0.353959C69.1006 0.167015 70.3722 0.353976 71.8253 0.167032C73.2785 0.167032 74.7317 0.167015 76.0032 0.353959C79.4544 2.97118 75.2766 4.65371 78.7279 3.53204C78.9095 4.09287 79.0912 2.59729 79.0912 3.15813C80.5443 2.78424 79.9994 6.52315 81.2709 5.40149C81.4525 3.71899 81.9975 4.65369 82.3608 3.71897C84.3589 5.58841 84.1773 7.08398 86.357 6.71009L85.9937 7.45786C88.9 6.33619 90.7165 8.39259 93.6228 7.08398C99.2539 10.0751 104.34 13.627 109.063 17.9268C113.786 22.2265 117.782 27.274 120.87 33.0693C123.594 38.8645 125.592 45.0337 127.046 51.2029C127.591 54.381 128.136 57.559 128.136 60.7371C128.317 63.9152 127.772 67.2801 127.409 70.4582C124.866 73.2624 124.866 73.2623 125.229 76.8143C124.866 76.6273 124.866 76.4404 124.503 76.6274C126.319 77.1882 124.139 78.8707 125.774 79.6185C125.048 81.8618 124.503 84.1051 123.776 86.3485C123.049 88.5918 122.505 90.8352 121.415 93.0785C121.596 92.3307 120.325 91.396 120.143 92.1438L120.688 93.4524H120.143C120.143 94.2002 120.688 95.1349 121.415 94.761C121.233 95.5088 120.87 96.2566 120.506 97.0043C120.143 97.7521 119.78 98.4999 119.417 99.0607C118.69 100.369 117.963 101.865 116.873 102.987C115.057 105.417 112.877 107.847 110.698 109.717C108.518 111.773 105.975 113.455 103.613 115.325C102.342 116.073 101.07 117.007 99.9804 117.755L98.164 119.064L96.3475 120.185C94.8944 120.559 93.6228 121.494 92.1696 122.429C90.7165 123.364 89.2633 124.298 87.9918 125.233C85.6304 125.607 83.4506 125.794 81.2709 125.981C79.0911 125.981 76.9114 126.168 74.9133 126.355C72.9152 126.355 70.7355 126.542 68.7373 126.915C66.7392 127.102 64.5595 127.289 62.3797 127.85C62.5614 128.224 63.6513 123.364 66.9209 122.055Z" fill="white"/>
<path d="M60.0179 123.364C59.8363 122.429 58.928 121.868 59.6546 120.747C59.8363 121.494 60.1996 122.429 60.0179 123.364Z" fill="white"/>
<path d="M40.582 108.408C40.4004 108.595 40.4004 108.034 40.582 107.847C40.7637 107.847 41.3086 107.286 41.3086 107.847C40.9453 107.66 40.7637 108.221 40.582 108.408Z" fill="white"/>
<path d="M36.2231 105.23C36.7681 104.669 38.0396 104.669 38.5845 104.856L36.2231 105.23Z" fill="white"/>
<path d="M34.2244 99.6217C34.406 98.8739 34.5877 98.687 35.1326 98.8739C34.9509 99.2478 34.5877 99.4348 34.2244 99.6217Z" fill="white"/>
<path d="M32.9532 100.93C32.5899 100.743 32.7715 100.182 32.9532 99.6213C32.4082 100.182 33.8614 99.8083 32.9532 100.93Z" fill="white"/>
<path d="M27.6854 91.7699C27.5037 91.583 26.5955 91.583 27.3221 90.8352C26.7772 91.396 28.5936 91.2091 27.6854 91.7699Z" fill="white"/>
<path d="M24.0525 88.405C24.0525 88.218 24.0525 88.0311 23.8708 88.0311C24.0525 87.6572 24.7791 87.4703 24.9607 87.6572L24.0525 88.405Z" fill="white"/>
<path d="M51.1177 15.6832L50.7544 16.244L50.5728 15.3093L51.1177 15.6832Z" fill="white"/>
<path d="M89.4452 22.6001C90.1717 22.4132 89.2636 23.5348 89.2636 23.5348C88.9003 23.3479 90.1717 22.7871 89.4452 22.6001Z" fill="white"/>
<path d="M107.61 36.4342L109.063 35.4995L107.61 36.4342Z" fill="white"/>
</svg>
