<svg viewBox="0 0 100 100"  xmlns="http://www.w3.org/2000/svg">
<path fill-rule="evenodd" clip-rule="evenodd" d="M50 95C74.8528 95 95 74.8528 95 50C95 25.1472 74.8528 5 50 5C25.1472 5 5 25.1472 5 50C5 74.8528 25.1472 95 50 95ZM50 100C77.6142 100 100 77.6142 100 50C100 22.3858 77.6142 0 50 0C22.3858 0 0 22.3858 0 50C0 77.6142 22.3858 100 50 100Z" fill="#0A0A0A"/>
<path d="M56.7715 19.6399C52.7817 19.6399 49.3353 20.9559 46.9161 23.5561C44.497 26.1563 43.1799 29.9673 43.1799 34.6446V40.7599H35.8599C35.5363 40.7599 35.226 40.899 34.9973 41.1466C34.7685 41.3941 34.6399 41.7298 34.6399 42.0799V52.6399C34.6399 52.99 34.7685 53.3257 34.9973 53.5732C35.226 53.8208 35.5363 53.9599 35.8599 53.9599H43.1799V79.0399C43.1799 79.39 43.3085 79.7257 43.5373 79.9732C43.766 80.2208 44.0763 80.3599 44.3999 80.3599H54.1599C54.4834 80.3599 54.7937 80.2208 55.0225 79.9732C55.2513 79.7257 55.3799 79.39 55.3799 79.0399V53.9599H63.9199C64.217 53.9599 64.504 53.8425 64.7268 53.6299C64.9497 53.4172 65.0932 53.1239 65.1304 52.8049L66.3504 42.2449C66.372 42.0591 66.3568 41.8704 66.3059 41.6915C66.2549 41.5125 66.1694 41.3473 66.0549 41.2068C65.9404 41.0664 65.7996 40.9539 65.6418 40.8768C65.4841 40.7998 65.313 40.7599 65.1399 40.7599H55.3799V35.4799C55.3799 34.0059 56.4576 32.8399 57.8199 32.8399H65.1399C65.4634 32.8399 65.7737 32.7008 66.0025 32.4532C66.2313 32.2057 66.3599 31.87 66.3599 31.5199V21.4162C66.3595 21.0963 66.2518 20.7875 66.0568 20.547C65.8617 20.3066 65.5927 20.151 65.2995 20.1091C64.2215 19.9543 60.3296 19.6399 56.7715 19.6399ZM56.7715 22.2799C59.7456 22.2799 62.6207 22.5374 63.9199 22.6692V30.1999H57.8199C55.1391 30.1999 52.9399 32.5794 52.9399 35.4799V42.0799C52.9399 42.43 53.0685 42.7657 53.2973 43.0132C53.526 43.2608 53.8363 43.3999 54.1599 43.3999H63.7579L62.8429 51.3199H54.1599C53.8363 51.3199 53.526 51.459 53.2973 51.7066C53.0685 51.9541 52.9399 52.2898 52.9399 52.6399V77.7199H45.6199V52.6399C45.6199 52.2898 45.4913 51.9541 45.2625 51.7066C45.0337 51.459 44.7234 51.3199 44.3999 51.3199H37.0799V43.3999H44.3999C44.7234 43.3999 45.0337 43.2608 45.2625 43.0132C45.4913 42.7657 45.6199 42.43 45.6199 42.0799V34.6446C45.6199 30.4937 46.7427 27.4634 48.6365 25.4278C50.5304 23.3922 53.2691 22.2799 56.7715 22.2799Z" />
</svg>
