<svg width="25" height="26" viewBox="0 0 25 26" fill="none" xmlns="http://www.w3.org/2000/svg">
<path d="M12.5 0.00268555C5.60847 0.00268555 0 5.61123 0 12.5029C0 19.3945 5.60847 25.003 12.5 25.003C19.3915 25.003 25 19.3945 25 12.5029C25 5.61123 19.3915 0.00268555 12.5 0.00268555ZM12.5 24.3416C5.96561 24.3416 0.661376 19.0373 0.661376 12.5029C0.661376 5.96837 5.96561 0.66407 12.5 0.66407C19.0344 0.66407 24.3386 5.96837 24.3386 12.5029C24.3386 19.0373 19.0344 24.3416 12.5 24.3416Z" fill="#EAEF10"/>
<path d="M13.6111 9.52658C13.6111 9.51335 13.6111 9.50012 13.6111 9.4869C13.6111 9.22234 13.6111 8.97102 13.6111 8.70646C13.6111 8.40223 13.6111 8.08476 13.6111 7.78053C13.6111 7.68793 13.6244 7.59534 13.664 7.51597C13.7699 7.27787 13.9154 7.15882 14.1138 7.15882C14.3915 7.15882 14.6825 7.15882 14.9603 7.15882H15.5159L15.6217 7.1456L15.6482 7.03977C15.6614 7.00009 15.6614 6.98686 15.6614 6.96041C15.6614 6.03447 15.6614 5.12176 15.6614 4.19582C15.6614 4.14291 15.6482 4.06354 15.5952 3.99741C15.5423 3.94449 15.463 3.94449 15.4101 3.94449C15.1852 3.94449 14.9603 3.94449 14.7222 3.94449C14.2725 3.94449 13.8095 3.94449 13.3466 3.95772C12.8439 3.97095 12.4206 4.07677 12.0503 4.28841C11.4947 4.59265 11.1111 5.05562 10.873 5.73023C10.7143 6.16675 10.6349 6.6694 10.6349 7.27787C10.6349 8.01862 10.6349 8.7726 10.6349 9.52658C10.6349 9.53981 10.6349 9.55304 10.6349 9.55304C10.3704 9.55304 10.1191 9.55304 9.85451 9.55304H9.32541V12.6615H10.6349V12.7541C10.6349 15.4129 10.6349 18.0849 10.6349 20.7569C10.6349 20.8627 10.6349 21.0876 10.9127 21.0876C11.5212 21.0876 12.1296 21.0876 12.7381 21.0876H13.3466C13.373 21.0876 13.3995 21.0876 13.4259 21.0876C13.4392 21.0876 13.4656 21.0876 13.4921 21.0876L13.6111 21.0744V12.6219H15.4233L15.4365 12.5028C15.4894 11.8414 15.5556 11.18 15.6085 10.5187L15.7011 9.52658H14.9339C14.4841 9.51335 14.0476 9.51335 13.6111 9.52658ZM15.3307 10.4922C15.2778 11.1139 15.2249 11.7356 15.172 12.3573H13.3333V20.7966H12.7249C12.1164 20.7966 11.508 20.7966 10.8995 20.7966C10.8995 20.7966 10.8995 20.7966 10.8863 20.7966C10.8863 20.7833 10.8863 20.7569 10.8863 20.7304C10.8863 18.0717 10.8863 15.3997 10.8863 12.7277V12.3705H9.57674V9.79113H9.84129C10.1058 9.79113 10.3704 9.79113 10.6349 9.79113C10.8863 9.79113 10.8863 9.56626 10.8863 9.50013C10.8863 8.75937 10.8863 8.0054 10.8863 7.26465C10.8863 6.69585 10.9656 6.21966 11.1111 5.8096C11.336 5.20113 11.6799 4.77784 12.1693 4.51328C12.5132 4.3281 12.8968 4.2355 13.3466 4.22228C13.8095 4.20905 14.2725 4.20905 14.7222 4.20905C14.9471 4.20905 15.172 4.20905 15.3968 4.20905C15.3968 5.10853 15.3968 6.00801 15.3968 6.89427H14.9603C14.6693 6.89427 14.3915 6.89427 14.1005 6.89427C13.8889 6.89427 13.5847 6.98686 13.4127 7.42338C13.373 7.5292 13.3466 7.66148 13.3466 7.79375C13.3466 8.11122 13.3466 8.41545 13.3466 8.73292C13.3466 8.99747 13.3466 9.2488 13.3466 9.51335C13.3466 9.59272 13.3466 9.81759 13.5979 9.81759C14.0476 9.81759 14.4841 9.81759 14.9339 9.81759H15.4101L15.3307 10.4922Z" fill="#EAEF10"/>
</svg>
