<svg width="14" height="26" viewBox="0 0 14 26" fill="none" xmlns="http://www.w3.org/2000/svg">
<path d="M12.8653 9.14156C11.863 9.1291 10.8486 9.06508 9.83012 8.99409C10.4333 7.6414 11.4144 6.53342 13.0359 5.91273C13.5382 5.72039 13.6684 5.00768 13.2008 4.74756C13.2175 4.32109 13.3151 3.87412 13.3756 3.46921C13.4464 2.99452 13.6017 2.41629 13.5371 1.90811C13.6202 1.61115 13.5445 1.26598 13.2309 1.08074C7.59703 -2.24747 4.93786 2.61265 3.83377 8.83215C2.65895 8.91506 1.4966 9.10191 0.35942 9.47039C0.00889174 9.58397 0.00741827 9.94294 0.202439 10.1346C-0.0339701 11.2032 -0.0195043 10.9835 0.0295188 12.146C0.0356802 12.2931 0.0914008 12.4 0.171231 12.4698C-0.063973 12.6873 -0.0655805 13.116 0.342678 13.2516C1.30439 13.5708 2.27614 13.7863 3.25982 13.9331C2.99863 18.3784 3.29331 22.6119 3.6879 24.4092C3.73384 24.6184 3.84274 24.7561 3.97896 24.8377C3.7238 25.1187 3.73693 25.6035 4.22823 25.7565C5.34612 26.1046 7.22011 26.1882 8.14043 25.2624C8.45292 25.6557 9.27439 25.4633 9.23662 24.8701C9.03062 21.6438 8.76635 18.4434 8.84363 15.205C8.85073 14.9057 8.86225 14.6024 8.8739 14.2996C10.0652 14.3116 11.2597 14.2465 12.3512 13.9529C12.7199 13.8538 12.8169 13.4155 12.6341 13.1461C12.5462 12.3719 12.7667 11.5363 13.1228 10.8559C13.1897 10.7281 13.215 10.6096 13.2137 10.5005C13.7717 10.1998 13.6567 9.15134 12.8653 9.14156ZM2.50947 10.1827C2.4709 10.2724 2.41919 10.354 2.37714 10.4416C2.28391 10.3888 2.19444 10.3319 2.09987 10.2806C1.94611 10.197 1.79502 10.1832 1.65826 10.2112C1.64125 10.1843 1.62465 10.1575 1.60388 10.1338C1.93459 10.1033 2.2657 10.0809 2.59667 10.0662C2.56345 10.1014 2.53224 10.1388 2.50947 10.1827Z" fill="#ADADAD"/>
</svg>
