<svg width="100" height="100" viewBox="0 0 100 100" fill="none" xmlns="http://www.w3.org/2000/svg">
<path fill-rule="evenodd" clip-rule="evenodd" d="M80 5H20C11.7157 5 5 11.7157 5 20V80C5 88.2843 11.7157 95 20 95H80C88.2843 95 95 88.2843 95 80V20C95 11.7157 88.2843 5 80 5ZM20 0C8.95431 0 0 8.9543 0 20V80C0 91.0457 8.9543 100 20 100H80C91.0457 100 100 91.0457 100 80V20C100 8.95431 91.0457 0 80 0H20Z" fill="#0A0A0A"/>
<path fill-rule="evenodd" clip-rule="evenodd" d="M50.5 71C62.3741 71 72 61.3741 72 49.5C72 37.6259 62.3741 28 50.5 28C38.6259 28 29 37.6259 29 49.5C29 61.3741 38.6259 71 50.5 71ZM50.5 74C64.031 74 75 63.031 75 49.5C75 35.969 64.031 25 50.5 25C36.969 25 26 35.969 26 49.5C26 63.031 36.969 74 50.5 74Z" fill="#0A0A0A"/>
<path fill-rule="evenodd" clip-rule="evenodd" d="M80 27C83.866 27 87 23.866 87 20C87 16.134 83.866 13 80 13C76.134 13 73 16.134 73 20C73 23.866 76.134 27 80 27ZM80 29C84.9706 29 89 24.9706 89 20C89 15.0294 84.9706 11 80 11C75.0294 11 71 15.0294 71 20C71 24.9706 75.0294 29 80 29Z" fill="#0A0A0A"/>
</svg>
