<svg width="25" height="26" viewBox="0 0 25 26" fill="none" xmlns="http://www.w3.org/2000/svg">
<path d="M19.8675 2.1099C18.7989 2.1099 17.9109 2.98339 17.9109 4.06773C17.9109 5.13701 18.7839 6.02556 19.8675 6.02556C20.9362 6.02556 21.8242 5.15207 21.8242 4.06773C21.8242 2.99845 20.9362 2.1099 19.8675 2.1099ZM19.8675 5.72436C18.9494 5.72436 18.2119 4.9864 18.2119 4.06773C18.2119 3.14906 18.9494 2.4111 19.8675 2.4111C20.7857 2.4111 21.5232 3.14906 21.5232 4.06773C21.5232 4.9864 20.7857 5.72436 19.8675 5.72436Z" fill="#EAEF10"/>
<path d="M19.8224 0.00146484H5.16255C2.31788 0.00146484 0 2.32074 0 5.16713V19.8509C0 22.6822 2.31788 25.0015 5.16255 25.0015H19.8374C22.6821 25.0015 25 22.6822 25 19.8358V5.16713C24.985 2.32074 22.6671 0.00146484 19.8224 0.00146484ZM24.0819 19.8358C24.0819 22.1852 22.1704 24.0979 19.8224 24.0979H5.16255C2.81457 24.0979 0.90307 22.1852 0.90307 19.8358V5.16713C0.90307 2.81773 2.81457 0.905079 5.16255 0.905079H19.8374C22.1704 0.905079 24.0819 2.81773 24.0819 5.16713V19.8358Z" fill="#EAEF10"/>
<path d="M12.4925 6.47737C9.16617 6.47737 6.472 9.17315 6.472 12.5015C6.472 15.8298 9.16617 18.5256 12.4925 18.5256C15.8188 18.5256 18.5129 15.8298 18.5129 12.5015C18.5129 9.17315 15.8188 6.47737 12.4925 6.47737ZM12.4925 18.2244C9.33173 18.2244 6.77303 15.6641 6.77303 12.5015C6.77303 9.33881 9.33173 6.77857 12.4925 6.77857C15.6532 6.77857 18.2119 9.33881 18.2119 12.5015C18.2119 15.6641 15.6532 18.2244 12.4925 18.2244Z" fill="#EAEF10"/>
</svg>
