<svg width="28" height="26" viewBox="0 0 28 26" fill="none" xmlns="http://www.w3.org/2000/svg">
<path fill-rule="evenodd" clip-rule="evenodd" d="M1.03236 13.8928C0.829761 16.9492 0.562716 20.9779 2.79948 23.3105C4.37472 24.9537 6.45056 25.3383 8.63233 25.5506C10.8668 25.7685 13.1104 25.9531 15.3565 25.9837L15.5624 25.9866C19.8189 26.046 24.9069 26.117 26.2851 21.2268C27.2073 17.9535 27.2173 14.4677 27.2271 11.0569C27.229 10.4057 27.2309 9.75723 27.2391 9.11349C27.2886 5.2334 26.4723 1.34397 22.1534 0.452097C19.1997 -0.157826 16.0223 -0.0181659 12.9591 0.116478C12.3307 0.144099 11.707 0.17151 11.0911 0.192194L10.8132 0.20136C8.26984 0.284422 4.50162 0.407485 2.44247 2.22104C2.15011 2.66165 1.82244 3.07812 1.47037 3.47667L1.44178 3.53244C1.37958 3.65349 1.3174 3.7745 1.26811 3.90663C1.64859 6.31522 1.43844 8.8005 1.23176 11.2448C1.17117 11.9614 1.11088 12.6744 1.06585 13.381C1.05521 13.5481 1.04389 13.7189 1.03236 13.8928ZM13.3183 8.82397C14.696 7.68362 16.8404 9.29782 17.5071 10.6838C18.4123 12.5633 18.4351 15.2506 16.1861 16.1692C13.6824 17.1917 10.4441 16.0153 10.2727 13.0582C10.1614 11.135 11.3284 8.83358 13.3183 8.82397ZM15.4121 15.2265C15.1029 15.3685 14.7835 15.4635 14.4639 15.5116C14.8232 15.5033 15.1813 15.4363 15.5209 15.3054L15.5071 15.296L15.5071 15.296C15.4746 15.2738 15.4426 15.252 15.4121 15.2265ZM24.033 4.38798C24.0488 3.90167 24.0208 3.41433 23.987 2.95788C23.9655 2.66578 23.7596 2.42249 23.4511 2.42172C23.3419 2.42138 23.1881 2.41329 23.0058 2.40371C22.1945 2.36104 20.818 2.28864 20.2837 2.73744C20.101 2.53674 19.7084 2.60762 19.6853 2.95814C19.5947 4.32541 19.5331 5.69165 19.5233 7.06204C19.5217 7.27624 19.678 7.50732 19.8961 7.55198C20.1726 7.60832 20.4603 7.65272 20.749 7.67609C20.7685 7.70829 20.7921 7.73866 20.8212 7.76593C21.3567 8.27489 22.3046 8.06699 23.0629 7.90066L23.0629 7.90066C23.254 7.85876 23.4329 7.81951 23.5903 7.79501C23.7609 7.76826 23.9164 7.58963 23.9556 7.42917C24.1968 6.45318 24.2529 5.37514 24.033 4.38798ZM24.161 11.1166C24.4019 11.1501 24.6353 11.3189 24.6719 11.6216C25.0479 14.7638 25.5835 19.5075 23.9566 22.3861C22.5154 24.9366 17.7864 24.6056 14.9329 24.4059C14.6187 24.3839 14.3272 24.3635 14.0653 24.3487C13.6851 24.3272 13.2838 24.312 12.8688 24.2962C9.91073 24.184 6.25571 24.0452 4.60084 21.4231C3.69183 19.9829 3.03156 17.6933 2.98638 15.5147C2.94484 15.448 2.91472 15.3701 2.91732 15.2698C2.90816 14.197 2.9021 13.1241 2.89604 12.0512C2.89351 11.6041 2.89099 11.1571 2.88824 10.71C2.88668 10.4221 3.11776 10.2304 3.38805 10.2102C3.73499 10.184 4.07276 10.1325 4.4078 10.0814C5.05064 9.98327 5.68347 9.8867 6.35186 9.97392C6.40613 9.98093 6.45416 9.99677 6.49934 10.016C6.66369 9.93627 6.83116 9.87474 7.03602 9.87448C7.22842 9.87422 7.43431 10.0479 7.41536 10.2538C7.40575 10.3585 7.37745 10.4504 7.3411 10.5363C7.34713 10.5418 7.35336 10.547 7.35959 10.5521C7.37079 10.5614 7.38198 10.5707 7.39199 10.5817C7.56413 10.7734 7.55764 11.0016 7.45794 11.1753C7.48079 11.1961 7.4987 11.2127 7.4987 11.2127C7.63839 11.322 7.65864 11.5336 7.62541 11.692C6.67122 16.2469 9.67398 19.8279 14.3657 19.7406C19.3623 19.6479 21.8891 15.8055 20.654 11.0805C20.6049 10.8928 20.6519 10.7373 20.7464 10.6228C20.8025 10.4057 21.0045 10.2188 21.2911 10.2756C22.0698 10.4301 22.8615 10.4265 23.6341 10.2429C24.1854 10.1118 24.4686 10.7941 24.161 11.1166ZM21.7586 20.123C21.762 20.1267 21.7654 20.1304 21.7689 20.1337C21.8857 19.642 22.0093 19.1515 22.1394 18.6628C22.1438 18.6305 22.1485 18.5982 22.1531 18.5659C22.1617 18.5059 22.1704 18.4457 22.1778 18.3853C22.1513 18.4533 22.1251 18.5213 22.0994 18.5894C22.0028 19.1011 21.8834 19.6066 21.7447 20.109C21.7497 20.1133 21.7542 20.1182 21.7586 20.123ZM21.4215 22.586C21.2029 22.7758 20.9689 22.9311 20.7246 23.0583C20.7067 23.0967 20.6818 23.1292 20.6532 23.1609C21.0523 23.0604 21.4269 22.9267 21.7663 22.7517C21.7198 22.7187 21.6783 22.6798 21.6456 22.6335C21.5954 22.633 21.5443 22.6268 21.4895 22.6086L21.4215 22.586ZM6.49882 12.1871C6.54634 11.9379 6.60242 11.686 6.67486 11.4303C6.68124 11.4075 6.6917 11.3883 6.70211 11.3692C6.70609 11.3619 6.71007 11.3546 6.7138 11.3472C6.66447 11.3264 6.61176 11.3108 6.55854 11.2971C6.58009 11.4396 6.53621 11.5936 6.4404 11.7026C6.46429 11.8644 6.4835 12.0259 6.49882 12.1871ZM14.3612 23.2682C14.2801 23.2734 14.1989 23.2786 14.1178 23.2839L14.1617 23.2852C14.3027 23.2892 14.4426 23.2931 14.5773 23.2987C14.7734 23.3063 14.9829 23.3169 15.2018 23.3296C15.1942 23.2902 15.1924 23.252 15.1919 23.2123C14.915 23.2324 14.638 23.2503 14.3612 23.2682Z" fill="#ADADAD"/>
</svg>
