<svg width="28" height="20" viewBox="0 0 28 20" fill="none" xmlns="http://www.w3.org/2000/svg">
<path d="M26.205 1.34408C26.3041 1.00665 26.0337 0.656032 25.6726 0.642288C22.7514 0.530511 19.7676 0.731484 16.8027 0.557579C11.9204 0.271055 6.88263 0.666129 2.10022 1.68236C1.54864 1.7996 1.58482 2.42061 1.93361 2.69185C1.94637 2.77137 1.97779 2.85313 2.03908 2.93139C3.72176 5.07983 6.30131 6.86685 8.49182 8.486C10.325 9.84106 13.4131 12.2635 15.9367 11.6529C18.2172 11.1009 19.7578 9.12608 21.3669 7.55658C22.4841 6.46687 24.8621 4.82374 25.5022 3.05649C25.6506 2.85482 25.7991 2.65342 25.9522 2.45568C25.9837 2.42272 26.012 2.3878 26.0435 2.35526C26.0881 2.30968 26.1124 2.26045 26.1368 2.21151C26.1689 2.16985 26.2031 2.12988 26.2322 2.08599C26.2705 2.02806 26.4351 1.77085 26.328 1.92498C26.416 1.69876 26.3636 1.47353 26.205 1.34408Z" fill="#ADADAD"/>
<path d="M6.23158 7.92432C5.62207 7.57988 4.99586 7.26418 4.37415 6.94176C3.86646 6.6032 3.36269 6.25946 2.87534 5.89299C2.72219 5.76424 2.56651 5.6383 2.41182 5.51138C2.36442 5.33607 2.23104 5.19877 2.02839 5.19569C1.96303 5.14365 1.90076 5.0877 1.83485 5.03622C1.71718 4.94436 1.58885 4.91393 1.46614 4.91912C1.39265 4.80622 1.31173 4.69837 1.22127 4.59739C1.21285 4.588 1.1942 4.58716 1.18593 4.59739C0.119071 5.90127 0.731528 7.62153 0.927452 9.20211C1.27148 11.977 1.73008 14.7012 1.6392 17.5072C1.62055 18.0829 2.30706 18.2728 2.69231 17.9434C4.85534 16.093 7.94567 12.9056 8.17904 9.91302C8.258 8.89918 6.93562 8.32234 6.23158 7.92432Z" fill="#ADADAD"/>
<path d="M27.1439 4.61493C27.1209 4.36094 26.9455 4.23234 26.7612 4.21873C26.6843 3.72675 25.9751 3.66504 25.7018 4.06123C25.4886 4.37006 25.282 4.68281 25.0773 4.99654C24.5419 5.51531 24.092 6.23393 23.7059 6.70544C22.6159 8.03708 21.5731 9.40659 20.4796 10.7357C20.2418 11.0246 20.2334 11.3616 20.4796 11.6498C22.2953 13.7753 24.0704 15.9492 26.4048 17.5288C26.8108 17.8034 27.3602 17.4382 27.3592 16.9812C27.3508 12.8691 27.515 8.71349 27.1439 4.61493Z" fill="#ADADAD"/>
<path d="M23.5582 17.3663C23.5581 17.3657 23.5581 17.3653 23.5579 17.3649C23.233 16.5129 22.3804 15.8388 21.7744 15.1843C20.6259 13.9441 19.4354 12.7429 18.0841 11.7235C17.8671 11.5598 17.5313 11.6463 17.352 11.818C17.1833 11.9791 17.0069 12.1164 16.8253 12.2368C16.4124 12.2013 15.9951 12.2091 15.5982 12.2349C13.7281 12.3571 12.7075 12.6484 11.001 11.425C10.785 11.2702 10.3879 11.3183 10.2192 11.5258C8.64117 13.4652 7.37278 15.6252 5.87607 17.6238C5.65939 17.8205 5.43429 18.0087 5.18914 18.1763C5.16502 18.1929 5.15254 18.2139 5.13276 18.2324C4.38048 18.2561 4.39913 19.3677 5.15015 19.4164C11.1282 19.806 17.0703 18.5406 23.0413 18.4298C23.5609 18.4205 23.9095 17.7714 23.5582 17.3663Z" fill="#ADADAD"/>
</svg>
