<svg width="25" height="25" viewBox="0 0 25 25" fill="none" xmlns="http://www.w3.org/2000/svg">
<path d="M24.5884 2.86662C23.9329 1.38795 22.6067 0.351347 21.0213 0.076953C20.747 0.0312206 20.4726 0.000732422 20.1829 0.000732422H4.78659C4.5122 0.000732422 4.22256 0.0312206 3.94817 0.076953C2.3628 0.351347 0.990854 1.46417 0.365854 2.95809C0.121951 3.53737 0 4.16237 0 4.80263V20.1992C0 22.8516 2.14939 25.0011 4.80183 25.0011H20.1982C22.8506 25.0011 25 22.8516 25 20.1992V4.80263C25 4.13189 24.8628 3.47639 24.5884 2.86662ZM24.2073 4.80263V20.1992C24.2073 22.4096 22.4085 24.2084 20.1982 24.2084H4.80183C2.59146 24.2084 0.792683 22.4096 0.792683 20.1992V4.80263C0.792683 4.36055 0.868902 3.93371 1.0061 3.52212L11.7226 12.7905C11.9207 12.9582 12.1799 13.0497 12.439 13.0497C12.6982 13.0497 12.9573 12.9582 13.1555 12.7905L23.9634 3.43066C24.1159 3.87274 24.2073 4.33006 24.2073 4.80263ZM12.9726 12.5924C12.6677 12.8515 12.1951 12.8515 11.8902 12.5924L1.1128 3.26297C1.6311 2.01295 2.78963 1.09831 4.11585 0.869646C4.34451 0.823914 4.57317 0.80867 4.81707 0.80867H20.2134C20.4421 0.80867 20.686 0.823914 20.9146 0.869646C22.2256 1.09831 23.3384 1.96722 23.872 3.18675L12.9726 12.5924Z" fill="#EAEF10"/>
</svg>
