<svg width="100" height="100" viewBox="0 0 100 100" fill="none" xmlns="http://www.w3.org/2000/svg">
<path fill-rule="evenodd" clip-rule="evenodd" d="M80 5H20C11.7157 5 5 11.7157 5 20V80C5 88.2843 11.7157 95 20 95H80C88.2843 95 95 88.2843 95 80V20C95 11.7157 88.2843 5 80 5ZM20 0C8.95431 0 0 8.9543 0 20V80C0 91.0457 8.9543 100 20 100H80C91.0457 100 100 91.0457 100 80V20C100 8.95431 91.0457 0 80 0H20Z" fill="#0A0A0A"/>
<path d="M4.35772 15.0919C3.00579 15.5184 2.479 17.3302 3.61944 18.4022L46.5756 58.7809C48.5002 60.5901 51.5001 60.5901 53.4247 58.7809L96.3807 18.4022C97.5192 17.332 96.9963 15.5245 95.6494 15.0941L53.4293 54.7809C51.5047 56.5901 48.5048 56.5901 46.5802 54.7809L4.35772 15.0919Z" fill="#0A0A0A"/>
</svg>
