<svg width="42" height="42" viewBox="0 0 42 42" fill="none" xmlns="http://www.w3.org/2000/svg">
<path d="M9.85714 12.9636L6 13.1818L9.00001 11.2182C12.4286 11 12 11.5818 15.3214 11.3636L13.3929 11.1455C14.7857 11.2182 15.9643 11.1455 15.6429 11C17.25 11.0727 15.8571 11.2909 18.2143 11.2909C18.3214 11.4364 16.5 11.3636 17.25 11.5091L20.5714 11.8H22.1786C21.8571 11.3636 24.9643 11.8 23.25 11.3636C25.171 11.3636 26.9674 11.4119 28.6973 11.4544L30.3523 12.6L29.8795 11.4821C30.7215 11.5004 31.5504 11.5142 32.3734 11.517C33.5844 11.5211 34.7824 11.5014 35.9897 11.4369C35.9932 11.4367 35.9967 11.4365 36 11.4364C35.9966 11.4366 35.9931 11.4367 35.9897 11.4369C35.792 11.4485 35.2989 11.5357 34.8214 11.8C34.3355 12.069 34.3332 12.7848 34.3929 13.1091C33.8571 13.1818 34.7143 13.2546 34.8214 13.3273C34.1786 13.3273 33.9643 13.1091 33 13.2545L33.2143 13.4C29.6786 13.0364 22.8214 13.6909 20.1429 13.1091C16.7143 13.3273 14.25 12.9636 10.0714 13.2545C8.78571 13.1091 11.6786 12.9636 9.85714 12.9636Z" fill="white"/>
<path d="M32.1429 18.9636L36 19.1818L33 17.2182C29.5714 17 30 17.5818 26.6786 17.3636L28.6071 17.1455C27.2143 17.2182 26.0357 17.1455 26.3571 17C24.75 17.0727 26.1429 17.2909 23.7857 17.2909C23.6786 17.4364 25.5 17.3636 24.75 17.5091L21.4286 17.8H19.8214C20.1429 17.3636 17.0357 17.8 18.75 17.3636C16.829 17.3636 15.0326 17.4119 13.3027 17.4544L11.6477 18.6L12.1205 17.4821C11.2785 17.5004 10.4496 17.5142 9.62662 17.517C8.41563 17.5211 7.21764 17.5014 6.01028 17.4369C6.00676 17.4367 6.00333 17.4365 6 17.4364C6.00343 17.4366 6.00686 17.4367 6.01028 17.4369C6.20797 17.4485 6.70115 17.5357 7.17857 17.8C7.6645 18.069 7.66676 18.7848 7.60715 19.1091C8.14286 19.1818 7.28571 19.2546 7.17857 19.3273C7.82143 19.3273 8.03572 19.1091 9.00001 19.2545L8.78572 19.4C12.3214 19.0364 19.1786 19.6909 21.8571 19.1091C25.2857 19.3273 27.75 18.9636 31.9286 19.2545C33.2143 19.1091 30.3214 18.9636 32.1429 18.9636Z" fill="white"/>
<path d="M32.1429 29.4364L36 29.2182L33 31.1818C29.5714 31.4 30 30.8182 26.6786 31.0364L28.6071 31.2545C27.2143 31.1818 26.0357 31.2545 26.3571 31.4C24.75 31.3273 26.1429 31.1091 23.7857 31.1091C23.6786 30.9636 25.5 31.0363 24.75 30.8909L21.4286 30.6H19.8214C20.1429 31.0364 17.0357 30.6 18.75 31.0364C16.829 31.0364 15.0326 30.9881 13.3027 30.9456L11.6477 29.8L12.1205 30.9179C11.2785 30.8996 10.4496 30.8858 9.62662 30.883C8.41563 30.8789 7.21764 30.8986 6.01028 30.9631C6.00676 30.9633 6.00333 30.9635 6 30.9636C6.00343 30.9634 6.00686 30.9633 6.01028 30.9631C6.20797 30.9515 6.70115 30.8643 7.17857 30.6C7.6645 30.331 7.66676 29.6152 7.60715 29.2909C8.14286 29.2182 7.28571 29.1454 7.17857 29.0727C7.82143 29.0727 8.03572 29.2909 9.00001 29.1454L8.78572 29C12.3214 29.3636 19.1786 28.7091 21.8571 29.2909C25.2857 29.0727 27.75 29.4364 31.9286 29.1454C33.2143 29.2909 30.3214 29.4364 32.1429 29.4364Z" fill="white"/>
<path d="M9.85714 23.4364L6 23.2182L9.00001 25.1818C12.4286 25.4 12 24.8182 15.3214 25.0364L13.3929 25.2545C14.7857 25.1818 15.9643 25.2545 15.6429 25.4C17.25 25.3273 15.8571 25.1091 18.2143 25.1091C18.3214 24.9636 16.5 25.0363 17.25 24.8909L20.5714 24.6H22.1786C21.8571 25.0364 24.9643 24.6 23.25 25.0364C25.171 25.0364 26.9674 24.9881 28.6973 24.9456L30.3523 23.8L29.8795 24.9179C30.7215 24.8996 31.5504 24.8858 32.3734 24.883C33.5844 24.8789 34.7824 24.8986 35.9897 24.9631C35.9932 24.9633 35.9967 24.9635 36 24.9636C35.9966 24.9634 35.9931 24.9633 35.9897 24.9631C35.792 24.9515 35.2989 24.8643 34.8214 24.6C34.3355 24.331 34.3332 23.6152 34.3929 23.2909C33.8571 23.2182 34.7143 23.1454 34.8214 23.0727C34.1786 23.0727 33.9643 23.2909 33 23.1454L33.2143 23C29.6786 23.3636 22.8214 22.7091 20.1429 23.2909C16.7143 23.0727 14.25 23.4364 10.0714 23.1454C8.78571 23.2909 11.6786 23.4364 9.85714 23.4364Z" fill="white"/>
</svg>
