<svg width="23" height="25" viewBox="0 0 23 25" fill="none" xmlns="http://www.w3.org/2000/svg">
<mask id="path-1-outside-1" maskUnits="userSpaceOnUse" x="-3.19276" y="-1.01251" width="29.386" height="27.8663" fill="black">
<rect fill="white" x="-3.19276" y="-1.01251" width="29.386" height="27.8663"/>
<path d="M21.0582 17.8482C21.232 18.1953 21.3874 18.5384 21.5162 18.9141C21.6001 19.1448 21.6471 19.3674 21.6758 19.5859C21.8862 19.594 22.0926 19.794 21.9477 20.0126C21.0293 21.3712 19.7759 22.5012 18.3773 23.329C17.091 24.0852 15.3574 24.6844 13.8683 24.1807C12.3833 23.6586 11.1064 22.5461 9.99894 21.452C8.79344 20.2783 7.73491 18.9635 6.67231 17.6672C5.718 16.4913 4.72285 15.3256 3.77261 14.1313C2.77946 12.8697 1.82508 11.5202 1.29948 9.97646C0.912948 8.84931 0.910369 7.73013 1.19576 6.61695C1.24043 6.06755 1.34025 5.53038 1.49521 5.00544C1.7786 3.98825 2.22951 3.08535 2.89694 2.24974C3.19289 1.87177 3.53177 1.56119 3.9401 1.28528C4.11977 1.17083 4.29128 1.09314 4.48118 1.01953C4.38719 0.921544 4.43202 0.719337 4.57292 0.692721C4.69544 0.662029 4.81389 0.64971 4.92826 0.655784C4.91187 0.55572 5.04255 0.488261 5.0957 0.596477C5.11 0.618936 5.12024 0.659783 5.13455 0.68224C5.67172 0.782058 6.18858 1.14738 6.58493 1.4474C7.17741 1.90663 7.66376 2.49662 8.09088 3.09277C8.1338 3.16014 8.1951 3.2316 8.23802 3.29897C8.38924 3.48679 8.54454 3.65622 8.67737 3.83997C9.06565 4.35035 9.43762 4.93427 9.66869 5.5448C9.94459 5.95313 10.2613 6.35122 10.623 6.7207C10.7967 6.89422 10.758 7.15565 10.5743 7.28848C10.0271 7.66861 9.40841 7.93644 8.76112 8.15936C8.53038 8.2432 8.28126 8.32297 8.01783 8.38028C7.97292 8.40889 7.928 8.43751 7.90146 8.4702C7.85247 8.5172 7.77894 8.50089 7.73194 8.45189C7.78518 8.7337 7.7608 9.0176 7.79565 9.29533C7.87143 9.73643 8.02481 10.1754 8.18226 10.5961C8.58302 11.5721 9.19206 12.4786 9.85823 13.3013C11.0169 14.7732 12.4758 16.196 14.1876 16.9999C14.1016 16.5179 14.1933 16.0175 14.3585 15.5334C14.6032 14.7777 14.9909 14.0729 15.5093 13.4743C15.5583 13.4273 15.6441 13.3884 15.7176 13.4047C17.2516 13.8798 18.6591 14.7512 19.7543 15.9005C20.2509 16.5313 20.6883 17.1683 21.0582 17.8482ZM16.4716 14.2662C16.3838 14.2274 16.3143 14.1928 16.2265 14.154C16.2224 14.1724 16.2183 14.1908 16.2326 14.2132C16.3062 14.2295 16.3797 14.2458 16.4716 14.2662ZM14.1042 17.6371C14.0633 17.6473 13.9898 17.631 13.9612 17.5861C13.9039 17.4963 13.9427 17.4084 14.0101 17.3655C14.0101 17.3655 14.0101 17.3655 14.0142 17.3471C13.1808 17.1045 12.4678 16.58 11.7915 16.0636C10.8865 15.3615 10.1019 14.5511 9.37437 13.6569C8.67958 12.7893 8.05625 11.8603 7.62688 10.8394C7.43674 10.3922 7.28743 9.93481 7.21573 9.47533C7.1625 9.19352 7.11741 8.87494 7.17855 8.59921C7.0601 8.61152 6.92328 8.61975 6.78645 8.62798C6.69046 8.62598 6.62301 8.49531 6.71691 8.4197C7.15793 8.17033 7.67048 8.03325 8.14011 7.8288C8.1891 7.78181 8.23809 7.73481 8.29116 7.66943C8.27069 7.58775 8.29107 7.49584 8.35229 7.39369C8.44005 7.25886 8.55642 7.16895 8.69117 7.08311C8.73609 7.05449 8.80346 7.01158 8.84838 6.98297C8.781 7.02589 8.87898 6.93189 8.87491 6.95028C8.87898 6.93189 8.91367 6.86243 8.91774 6.84405C8.92997 6.7889 8.93812 6.75214 8.95035 6.69699C8.9585 6.66023 8.94827 6.61939 8.95642 6.58263C8.95435 6.50502 8.93795 6.40496 8.93588 6.32735C8.89287 6.08638 8.81311 5.83726 8.69658 5.57998C8.33891 5.01853 8.00778 4.42438 7.66442 3.88538C7.20461 3.26271 6.6815 2.66456 6.11963 2.15426C5.94188 1.99913 5.76412 1.844 5.57822 1.72564C5.9012 2.35655 6.22418 2.98746 6.56962 3.60407C6.56962 3.60407 6.56555 3.62245 6.56962 3.60407C6.09958 2.94055 5.69691 2.23411 5.31263 1.53175C5.29424 1.52767 5.29424 1.52766 5.27994 1.50521C5.24725 1.47867 5.22886 1.4746 5.19617 1.44807C5.1451 1.41746 5.10834 1.4093 5.05319 1.39708C4.90621 1.53806 4.75516 1.69743 4.62656 1.84249C4.63272 1.90172 4.6348 1.97932 4.65934 2.04262C4.70642 2.26521 4.74942 2.50618 4.81488 2.73285C4.96011 3.20863 5.14618 3.67418 5.53845 3.99259C5.57114 4.01913 5.54053 4.07019 5.48538 4.05796C5.09926 3.79878 4.85606 3.41699 4.68022 2.99228C4.58207 2.73908 4.52476 2.47566 4.46745 2.21223C4.45722 2.17139 4.45106 2.11216 4.42244 2.06725C4.16933 2.33899 3.90806 2.64751 3.70602 2.94986C3.76566 3.81167 4.22148 4.62633 4.59354 5.38384C4.61807 5.44714 4.55069 5.49006 4.5037 5.44107C4.11534 4.75709 3.66161 4.02003 3.49991 3.27059C3.31218 3.5954 3.13875 3.94268 2.9837 4.29403C3.04716 4.61668 3.129 4.9434 3.23331 5.25583C3.48284 6.04403 3.84059 6.77908 4.07174 7.56321C4.07174 7.56321 4.06767 7.58159 4.05337 7.55913C3.69354 6.74647 3.27041 5.95835 2.97795 5.10278C2.93295 4.95779 2.88795 4.81281 2.84703 4.64945C2.75728 4.88027 2.68592 5.11516 2.61455 5.35006C2.59009 5.46035 2.55132 5.54819 2.52687 5.65848C2.72957 6.74488 3.43468 7.82696 3.83951 8.7846C3.84974 8.82544 3.8089 8.83567 3.77621 8.80914C3.34693 7.9618 2.71543 7.06962 2.40252 6.13236C2.3047 6.57354 2.22934 7.00041 2.1499 7.44567C2.18675 7.62741 2.26036 7.81731 2.31967 7.98475C2.53028 8.5136 2.80418 9.01791 3.01071 9.56515C3.02094 9.60599 2.95764 9.63053 2.94741 9.58969C2.68981 9.01184 2.324 8.48715 2.09293 7.87661C2.07663 7.95014 2.0787 8.02775 2.0624 8.10128C2.00949 8.51385 2.00766 8.95703 2.02829 9.3859C2.04891 9.81477 2.14714 10.2416 2.18615 10.6745C2.19231 10.7337 2.14739 10.7623 2.11063 10.7542C2.4193 11.3626 2.7729 11.9425 3.14895 12.508C4.06657 13.8494 5.15363 15.0354 6.16924 16.2828C7.17054 17.5077 8.14939 18.7469 9.21807 19.9288C10.348 21.1823 11.5965 22.4234 13.0857 23.2743C13.7721 23.6579 14.4584 23.8679 15.2385 23.8288C16.0738 23.8018 16.8967 23.4828 17.6175 23.1026C18.9242 22.428 20.1348 21.4043 21.0349 20.2153C21.0206 20.1928 21.0246 20.1744 21.0062 20.1703C20.8487 19.5761 20.6728 18.9778 20.3887 18.4326C20.033 17.7752 19.5466 17.1852 19.0072 16.6606C18.5618 16.234 18.0429 15.791 17.4627 15.4503C17.4648 15.5279 17.4485 15.6014 17.4322 15.6749C17.4281 15.6933 17.3913 15.6852 17.3954 15.6668C17.4117 15.5932 17.4137 15.4973 17.4116 15.4196C17.0541 15.2054 16.6701 15.0238 16.2738 14.8974C16.3496 15.3385 16.4846 15.7734 16.6543 16.1389C16.6543 16.1389 16.6502 16.1573 16.6543 16.1389C16.4172 15.8163 16.2557 15.4141 16.1636 15.0465C16.1574 14.9873 16.1329 14.924 16.1084 14.8607C15.9429 14.824 15.7591 14.7832 15.5896 14.7649C15.5284 14.8671 15.4488 14.9651 15.3875 15.0673C15.4491 15.6595 15.8456 16.3067 16.2032 16.6946L16.1991 16.713C15.8763 16.4293 15.3859 15.8577 15.2386 15.3043C15.1243 15.4718 15.01 15.6393 14.9141 15.8109C14.8875 15.8436 14.8794 15.8804 14.8569 15.8947C14.8775 16.15 14.9899 16.4256 15.0962 16.642C15.2762 17.0484 15.4969 17.4445 15.6768 17.8508C15.7054 17.8957 15.6197 17.9346 15.5911 17.8896C15.3458 17.4302 15.0515 17.0178 14.8287 16.5441C14.7939 16.44 14.7407 16.3318 14.706 16.2276C14.6203 16.4401 14.5714 16.6607 14.5409 16.8853C14.5776 16.8935 14.6103 16.92 14.6205 16.9609C14.68 17.4755 14.9661 17.9247 15.238 18.3514C15.2952 18.4412 15.1645 18.5087 15.1032 18.4372C14.8743 18.0779 14.6311 17.6961 14.5063 17.302C14.4798 17.3347 14.4206 17.3408 14.4103 17.3C14.3899 17.2183 14.3653 17.155 14.3449 17.0733C14.3633 17.251 14.3859 17.4103 14.4493 17.5593C14.4738 17.6226 14.3656 17.6758 14.341 17.6125C14.2981 17.5451 14.2736 17.4818 14.2307 17.4144C14.243 17.5329 14.1858 17.6166 14.1042 17.6371ZM15.5362 14.1359C15.7282 14.1399 15.9161 14.1623 16.104 14.1847C16.108 14.1663 16.1162 14.1295 16.1203 14.1112C15.9773 14.0602 15.8384 13.9908 15.6954 13.9398C15.6423 14.0052 15.5893 14.0706 15.5362 14.1359Z"/>
</mask>
<path d="M21.0582 17.8482C21.232 18.1953 21.3874 18.5384 21.5162 18.9141C21.6001 19.1448 21.6471 19.3674 21.6758 19.5859C21.8862 19.594 22.0926 19.794 21.9477 20.0126C21.0293 21.3712 19.7759 22.5012 18.3773 23.329C17.091 24.0852 15.3574 24.6844 13.8683 24.1807C12.3833 23.6586 11.1064 22.5461 9.99894 21.452C8.79344 20.2783 7.73491 18.9635 6.67231 17.6672C5.718 16.4913 4.72285 15.3256 3.77261 14.1313C2.77946 12.8697 1.82508 11.5202 1.29948 9.97646C0.912948 8.84931 0.910369 7.73013 1.19576 6.61695C1.24043 6.06755 1.34025 5.53038 1.49521 5.00544C1.7786 3.98825 2.22951 3.08535 2.89694 2.24974C3.19289 1.87177 3.53177 1.56119 3.9401 1.28528C4.11977 1.17083 4.29128 1.09314 4.48118 1.01953C4.38719 0.921544 4.43202 0.719337 4.57292 0.692721C4.69544 0.662029 4.81389 0.64971 4.92826 0.655784C4.91187 0.55572 5.04255 0.488261 5.0957 0.596477C5.11 0.618936 5.12024 0.659783 5.13455 0.68224C5.67172 0.782058 6.18858 1.14738 6.58493 1.4474C7.17741 1.90663 7.66376 2.49662 8.09088 3.09277C8.1338 3.16014 8.1951 3.2316 8.23802 3.29897C8.38924 3.48679 8.54454 3.65622 8.67737 3.83997C9.06565 4.35035 9.43762 4.93427 9.66869 5.5448C9.94459 5.95313 10.2613 6.35122 10.623 6.7207C10.7967 6.89422 10.758 7.15565 10.5743 7.28848C10.0271 7.66861 9.40841 7.93644 8.76112 8.15936C8.53038 8.2432 8.28126 8.32297 8.01783 8.38028C7.97292 8.40889 7.928 8.43751 7.90146 8.4702C7.85247 8.5172 7.77894 8.50089 7.73194 8.45189C7.78518 8.7337 7.7608 9.0176 7.79565 9.29533C7.87143 9.73643 8.02481 10.1754 8.18226 10.5961C8.58302 11.5721 9.19206 12.4786 9.85823 13.3013C11.0169 14.7732 12.4758 16.196 14.1876 16.9999C14.1016 16.5179 14.1933 16.0175 14.3585 15.5334C14.6032 14.7777 14.9909 14.0729 15.5093 13.4743C15.5583 13.4273 15.6441 13.3884 15.7176 13.4047C17.2516 13.8798 18.6591 14.7512 19.7543 15.9005C20.2509 16.5313 20.6883 17.1683 21.0582 17.8482ZM16.4716 14.2662C16.3838 14.2274 16.3143 14.1928 16.2265 14.154C16.2224 14.1724 16.2183 14.1908 16.2326 14.2132C16.3062 14.2295 16.3797 14.2458 16.4716 14.2662ZM14.1042 17.6371C14.0633 17.6473 13.9898 17.631 13.9612 17.5861C13.9039 17.4963 13.9427 17.4084 14.0101 17.3655C14.0101 17.3655 14.0101 17.3655 14.0142 17.3471C13.1808 17.1045 12.4678 16.58 11.7915 16.0636C10.8865 15.3615 10.1019 14.5511 9.37437 13.6569C8.67958 12.7893 8.05625 11.8603 7.62688 10.8394C7.43674 10.3922 7.28743 9.93481 7.21573 9.47533C7.1625 9.19352 7.11741 8.87494 7.17855 8.59921C7.0601 8.61152 6.92328 8.61975 6.78645 8.62798C6.69046 8.62598 6.62301 8.49531 6.71691 8.4197C7.15793 8.17033 7.67048 8.03325 8.14011 7.8288C8.1891 7.78181 8.23809 7.73481 8.29116 7.66943C8.27069 7.58775 8.29107 7.49584 8.35229 7.39369C8.44005 7.25886 8.55642 7.16895 8.69117 7.08311C8.73609 7.05449 8.80346 7.01158 8.84838 6.98297C8.781 7.02589 8.87898 6.93189 8.87491 6.95028C8.87898 6.93189 8.91367 6.86243 8.91774 6.84405C8.92997 6.7889 8.93812 6.75214 8.95035 6.69699C8.9585 6.66023 8.94827 6.61939 8.95642 6.58263C8.95435 6.50502 8.93795 6.40496 8.93588 6.32735C8.89287 6.08638 8.81311 5.83726 8.69658 5.57998C8.33891 5.01853 8.00778 4.42438 7.66442 3.88538C7.20461 3.26271 6.6815 2.66456 6.11963 2.15426C5.94188 1.99913 5.76412 1.844 5.57822 1.72564C5.9012 2.35655 6.22418 2.98746 6.56962 3.60407C6.56962 3.60407 6.56555 3.62245 6.56962 3.60407C6.09958 2.94055 5.69691 2.23411 5.31263 1.53175C5.29424 1.52767 5.29424 1.52766 5.27994 1.50521C5.24725 1.47867 5.22886 1.4746 5.19617 1.44807C5.1451 1.41746 5.10834 1.4093 5.05319 1.39708C4.90621 1.53806 4.75516 1.69743 4.62656 1.84249C4.63272 1.90172 4.6348 1.97932 4.65934 2.04262C4.70642 2.26521 4.74942 2.50618 4.81488 2.73285C4.96011 3.20863 5.14618 3.67418 5.53845 3.99259C5.57114 4.01913 5.54053 4.07019 5.48538 4.05796C5.09926 3.79878 4.85606 3.41699 4.68022 2.99228C4.58207 2.73908 4.52476 2.47566 4.46745 2.21223C4.45722 2.17139 4.45106 2.11216 4.42244 2.06725C4.16933 2.33899 3.90806 2.64751 3.70602 2.94986C3.76566 3.81167 4.22148 4.62633 4.59354 5.38384C4.61807 5.44714 4.55069 5.49006 4.5037 5.44107C4.11534 4.75709 3.66161 4.02003 3.49991 3.27059C3.31218 3.5954 3.13875 3.94268 2.9837 4.29403C3.04716 4.61668 3.129 4.9434 3.23331 5.25583C3.48284 6.04403 3.84059 6.77908 4.07174 7.56321C4.07174 7.56321 4.06767 7.58159 4.05337 7.55913C3.69354 6.74647 3.27041 5.95835 2.97795 5.10278C2.93295 4.95779 2.88795 4.81281 2.84703 4.64945C2.75728 4.88027 2.68592 5.11516 2.61455 5.35006C2.59009 5.46035 2.55132 5.54819 2.52687 5.65848C2.72957 6.74488 3.43468 7.82696 3.83951 8.7846C3.84974 8.82544 3.8089 8.83567 3.77621 8.80914C3.34693 7.9618 2.71543 7.06962 2.40252 6.13236C2.3047 6.57354 2.22934 7.00041 2.1499 7.44567C2.18675 7.62741 2.26036 7.81731 2.31967 7.98475C2.53028 8.5136 2.80418 9.01791 3.01071 9.56515C3.02094 9.60599 2.95764 9.63053 2.94741 9.58969C2.68981 9.01184 2.324 8.48715 2.09293 7.87661C2.07663 7.95014 2.0787 8.02775 2.0624 8.10128C2.00949 8.51385 2.00766 8.95703 2.02829 9.3859C2.04891 9.81477 2.14714 10.2416 2.18615 10.6745C2.19231 10.7337 2.14739 10.7623 2.11063 10.7542C2.4193 11.3626 2.7729 11.9425 3.14895 12.508C4.06657 13.8494 5.15363 15.0354 6.16924 16.2828C7.17054 17.5077 8.14939 18.7469 9.21807 19.9288C10.348 21.1823 11.5965 22.4234 13.0857 23.2743C13.7721 23.6579 14.4584 23.8679 15.2385 23.8288C16.0738 23.8018 16.8967 23.4828 17.6175 23.1026C18.9242 22.428 20.1348 21.4043 21.0349 20.2153C21.0206 20.1928 21.0246 20.1744 21.0062 20.1703C20.8487 19.5761 20.6728 18.9778 20.3887 18.4326C20.033 17.7752 19.5466 17.1852 19.0072 16.6606C18.5618 16.234 18.0429 15.791 17.4627 15.4503C17.4648 15.5279 17.4485 15.6014 17.4322 15.6749C17.4281 15.6933 17.3913 15.6852 17.3954 15.6668C17.4117 15.5932 17.4137 15.4973 17.4116 15.4196C17.0541 15.2054 16.6701 15.0238 16.2738 14.8974C16.3496 15.3385 16.4846 15.7734 16.6543 16.1389C16.6543 16.1389 16.6502 16.1573 16.6543 16.1389C16.4172 15.8163 16.2557 15.4141 16.1636 15.0465C16.1574 14.9873 16.1329 14.924 16.1084 14.8607C15.9429 14.824 15.7591 14.7832 15.5896 14.7649C15.5284 14.8671 15.4488 14.9651 15.3875 15.0673C15.4491 15.6595 15.8456 16.3067 16.2032 16.6946L16.1991 16.713C15.8763 16.4293 15.3859 15.8577 15.2386 15.3043C15.1243 15.4718 15.01 15.6393 14.9141 15.8109C14.8875 15.8436 14.8794 15.8804 14.8569 15.8947C14.8775 16.15 14.9899 16.4256 15.0962 16.642C15.2762 17.0484 15.4969 17.4445 15.6768 17.8508C15.7054 17.8957 15.6197 17.9346 15.5911 17.8896C15.3458 17.4302 15.0515 17.0178 14.8287 16.5441C14.7939 16.44 14.7407 16.3318 14.706 16.2276C14.6203 16.4401 14.5714 16.6607 14.5409 16.8853C14.5776 16.8935 14.6103 16.92 14.6205 16.9609C14.68 17.4755 14.9661 17.9247 15.238 18.3514C15.2952 18.4412 15.1645 18.5087 15.1032 18.4372C14.8743 18.0779 14.6311 17.6961 14.5063 17.302C14.4798 17.3347 14.4206 17.3408 14.4103 17.3C14.3899 17.2183 14.3653 17.155 14.3449 17.0733C14.3633 17.251 14.3859 17.4103 14.4493 17.5593C14.4738 17.6226 14.3656 17.6758 14.341 17.6125C14.2981 17.5451 14.2736 17.4818 14.2307 17.4144C14.243 17.5329 14.1858 17.6166 14.1042 17.6371ZM15.5362 14.1359C15.7282 14.1399 15.9161 14.1623 16.104 14.1847C16.108 14.1663 16.1162 14.1295 16.1203 14.1112C15.9773 14.0602 15.8384 13.9908 15.6954 13.9398C15.6423 14.0052 15.5893 14.0706 15.5362 14.1359Z" fill="#ADADAD"/>
<path d="M21.0582 17.8482C21.232 18.1953 21.3874 18.5384 21.5162 18.9141C21.6001 19.1448 21.6471 19.3674 21.6758 19.5859C21.8862 19.594 22.0926 19.794 21.9477 20.0126C21.0293 21.3712 19.7759 22.5012 18.3773 23.329C17.091 24.0852 15.3574 24.6844 13.8683 24.1807C12.3833 23.6586 11.1064 22.5461 9.99894 21.452C8.79344 20.2783 7.73491 18.9635 6.67231 17.6672C5.718 16.4913 4.72285 15.3256 3.77261 14.1313C2.77946 12.8697 1.82508 11.5202 1.29948 9.97646C0.912948 8.84931 0.910369 7.73013 1.19576 6.61695C1.24043 6.06755 1.34025 5.53038 1.49521 5.00544C1.7786 3.98825 2.22951 3.08535 2.89694 2.24974C3.19289 1.87177 3.53177 1.56119 3.9401 1.28528C4.11977 1.17083 4.29128 1.09314 4.48118 1.01953C4.38719 0.921544 4.43202 0.719337 4.57292 0.692721C4.69544 0.662029 4.81389 0.64971 4.92826 0.655784C4.91187 0.55572 5.04255 0.488261 5.0957 0.596477C5.11 0.618936 5.12024 0.659783 5.13455 0.68224C5.67172 0.782058 6.18858 1.14738 6.58493 1.4474C7.17741 1.90663 7.66376 2.49662 8.09088 3.09277C8.1338 3.16014 8.1951 3.2316 8.23802 3.29897C8.38924 3.48679 8.54454 3.65622 8.67737 3.83997C9.06565 4.35035 9.43762 4.93427 9.66869 5.5448C9.94459 5.95313 10.2613 6.35122 10.623 6.7207C10.7967 6.89422 10.758 7.15565 10.5743 7.28848C10.0271 7.66861 9.40841 7.93644 8.76112 8.15936C8.53038 8.2432 8.28126 8.32297 8.01783 8.38028C7.97292 8.40889 7.928 8.43751 7.90146 8.4702C7.85247 8.5172 7.77894 8.50089 7.73194 8.45189C7.78518 8.7337 7.7608 9.0176 7.79565 9.29533C7.87143 9.73643 8.02481 10.1754 8.18226 10.5961C8.58302 11.5721 9.19206 12.4786 9.85823 13.3013C11.0169 14.7732 12.4758 16.196 14.1876 16.9999C14.1016 16.5179 14.1933 16.0175 14.3585 15.5334C14.6032 14.7777 14.9909 14.0729 15.5093 13.4743C15.5583 13.4273 15.6441 13.3884 15.7176 13.4047C17.2516 13.8798 18.6591 14.7512 19.7543 15.9005C20.2509 16.5313 20.6883 17.1683 21.0582 17.8482ZM16.4716 14.2662C16.3838 14.2274 16.3143 14.1928 16.2265 14.154C16.2224 14.1724 16.2183 14.1908 16.2326 14.2132C16.3062 14.2295 16.3797 14.2458 16.4716 14.2662ZM14.1042 17.6371C14.0633 17.6473 13.9898 17.631 13.9612 17.5861C13.9039 17.4963 13.9427 17.4084 14.0101 17.3655C14.0101 17.3655 14.0101 17.3655 14.0142 17.3471C13.1808 17.1045 12.4678 16.58 11.7915 16.0636C10.8865 15.3615 10.1019 14.5511 9.37437 13.6569C8.67958 12.7893 8.05625 11.8603 7.62688 10.8394C7.43674 10.3922 7.28743 9.93481 7.21573 9.47533C7.1625 9.19352 7.11741 8.87494 7.17855 8.59921C7.0601 8.61152 6.92328 8.61975 6.78645 8.62798C6.69046 8.62598 6.62301 8.49531 6.71691 8.4197C7.15793 8.17033 7.67048 8.03325 8.14011 7.8288C8.1891 7.78181 8.23809 7.73481 8.29116 7.66943C8.27069 7.58775 8.29107 7.49584 8.35229 7.39369C8.44005 7.25886 8.55642 7.16895 8.69117 7.08311C8.73609 7.05449 8.80346 7.01158 8.84838 6.98297C8.781 7.02589 8.87898 6.93189 8.87491 6.95028C8.87898 6.93189 8.91367 6.86243 8.91774 6.84405C8.92997 6.7889 8.93812 6.75214 8.95035 6.69699C8.9585 6.66023 8.94827 6.61939 8.95642 6.58263C8.95435 6.50502 8.93795 6.40496 8.93588 6.32735C8.89287 6.08638 8.81311 5.83726 8.69658 5.57998C8.33891 5.01853 8.00778 4.42438 7.66442 3.88538C7.20461 3.26271 6.6815 2.66456 6.11963 2.15426C5.94188 1.99913 5.76412 1.844 5.57822 1.72564C5.9012 2.35655 6.22418 2.98746 6.56962 3.60407C6.56962 3.60407 6.56555 3.62245 6.56962 3.60407C6.09958 2.94055 5.69691 2.23411 5.31263 1.53175C5.29424 1.52767 5.29424 1.52766 5.27994 1.50521C5.24725 1.47867 5.22886 1.4746 5.19617 1.44807C5.1451 1.41746 5.10834 1.4093 5.05319 1.39708C4.90621 1.53806 4.75516 1.69743 4.62656 1.84249C4.63272 1.90172 4.6348 1.97932 4.65934 2.04262C4.70642 2.26521 4.74942 2.50618 4.81488 2.73285C4.96011 3.20863 5.14618 3.67418 5.53845 3.99259C5.57114 4.01913 5.54053 4.07019 5.48538 4.05796C5.09926 3.79878 4.85606 3.41699 4.68022 2.99228C4.58207 2.73908 4.52476 2.47566 4.46745 2.21223C4.45722 2.17139 4.45106 2.11216 4.42244 2.06725C4.16933 2.33899 3.90806 2.64751 3.70602 2.94986C3.76566 3.81167 4.22148 4.62633 4.59354 5.38384C4.61807 5.44714 4.55069 5.49006 4.5037 5.44107C4.11534 4.75709 3.66161 4.02003 3.49991 3.27059C3.31218 3.5954 3.13875 3.94268 2.9837 4.29403C3.04716 4.61668 3.129 4.9434 3.23331 5.25583C3.48284 6.04403 3.84059 6.77908 4.07174 7.56321C4.07174 7.56321 4.06767 7.58159 4.05337 7.55913C3.69354 6.74647 3.27041 5.95835 2.97795 5.10278C2.93295 4.95779 2.88795 4.81281 2.84703 4.64945C2.75728 4.88027 2.68592 5.11516 2.61455 5.35006C2.59009 5.46035 2.55132 5.54819 2.52687 5.65848C2.72957 6.74488 3.43468 7.82696 3.83951 8.7846C3.84974 8.82544 3.8089 8.83567 3.77621 8.80914C3.34693 7.9618 2.71543 7.06962 2.40252 6.13236C2.3047 6.57354 2.22934 7.00041 2.1499 7.44567C2.18675 7.62741 2.26036 7.81731 2.31967 7.98475C2.53028 8.5136 2.80418 9.01791 3.01071 9.56515C3.02094 9.60599 2.95764 9.63053 2.94741 9.58969C2.68981 9.01184 2.324 8.48715 2.09293 7.87661C2.07663 7.95014 2.0787 8.02775 2.0624 8.10128C2.00949 8.51385 2.00766 8.95703 2.02829 9.3859C2.04891 9.81477 2.14714 10.2416 2.18615 10.6745C2.19231 10.7337 2.14739 10.7623 2.11063 10.7542C2.4193 11.3626 2.7729 11.9425 3.14895 12.508C4.06657 13.8494 5.15363 15.0354 6.16924 16.2828C7.17054 17.5077 8.14939 18.7469 9.21807 19.9288C10.348 21.1823 11.5965 22.4234 13.0857 23.2743C13.7721 23.6579 14.4584 23.8679 15.2385 23.8288C16.0738 23.8018 16.8967 23.4828 17.6175 23.1026C18.9242 22.428 20.1348 21.4043 21.0349 20.2153C21.0206 20.1928 21.0246 20.1744 21.0062 20.1703C20.8487 19.5761 20.6728 18.9778 20.3887 18.4326C20.033 17.7752 19.5466 17.1852 19.0072 16.6606C18.5618 16.234 18.0429 15.791 17.4627 15.4503C17.4648 15.5279 17.4485 15.6014 17.4322 15.6749C17.4281 15.6933 17.3913 15.6852 17.3954 15.6668C17.4117 15.5932 17.4137 15.4973 17.4116 15.4196C17.0541 15.2054 16.6701 15.0238 16.2738 14.8974C16.3496 15.3385 16.4846 15.7734 16.6543 16.1389C16.6543 16.1389 16.6502 16.1573 16.6543 16.1389C16.4172 15.8163 16.2557 15.4141 16.1636 15.0465C16.1574 14.9873 16.1329 14.924 16.1084 14.8607C15.9429 14.824 15.7591 14.7832 15.5896 14.7649C15.5284 14.8671 15.4488 14.9651 15.3875 15.0673C15.4491 15.6595 15.8456 16.3067 16.2032 16.6946L16.1991 16.713C15.8763 16.4293 15.3859 15.8577 15.2386 15.3043C15.1243 15.4718 15.01 15.6393 14.9141 15.8109C14.8875 15.8436 14.8794 15.8804 14.8569 15.8947C14.8775 16.15 14.9899 16.4256 15.0962 16.642C15.2762 17.0484 15.4969 17.4445 15.6768 17.8508C15.7054 17.8957 15.6197 17.9346 15.5911 17.8896C15.3458 17.4302 15.0515 17.0178 14.8287 16.5441C14.7939 16.44 14.7407 16.3318 14.706 16.2276C14.6203 16.4401 14.5714 16.6607 14.5409 16.8853C14.5776 16.8935 14.6103 16.92 14.6205 16.9609C14.68 17.4755 14.9661 17.9247 15.238 18.3514C15.2952 18.4412 15.1645 18.5087 15.1032 18.4372C14.8743 18.0779 14.6311 17.6961 14.5063 17.302C14.4798 17.3347 14.4206 17.3408 14.4103 17.3C14.3899 17.2183 14.3653 17.155 14.3449 17.0733C14.3633 17.251 14.3859 17.4103 14.4493 17.5593C14.4738 17.6226 14.3656 17.6758 14.341 17.6125C14.2981 17.5451 14.2736 17.4818 14.2307 17.4144C14.243 17.5329 14.1858 17.6166 14.1042 17.6371ZM15.5362 14.1359C15.7282 14.1399 15.9161 14.1623 16.104 14.1847C16.108 14.1663 16.1162 14.1295 16.1203 14.1112C15.9773 14.0602 15.8384 13.9908 15.6954 13.9398C15.6423 14.0052 15.5893 14.0706 15.5362 14.1359Z" stroke="#ADADAD" stroke-width="0.4" mask="url(#path-1-outside-1)"/>
</svg>
