<?xml version="1.0" standalone="no"?>
<!DOCTYPE svg PUBLIC "-//W3C//DTD SVG 20010904//EN"
 "http://www.w3.org/TR/2001/REC-SVG-20010904/DTD/svg10.dtd">
<svg version="1.0" xmlns="http://www.w3.org/2000/svg"
 width="500.000000pt" height="500.000000pt" viewBox="0 0 500.000000 500.000000"
 preserveAspectRatio="xMidYMid meet">

<g transform="translate(0.000000,500.000000) scale(0.100000,-0.100000)"
fill="#000000" stroke="none">
<path d="M2450 4838 c-47 -44 -63 -108 -43 -168 3 -8 6 -34 8 -56 3 -40 2 -42
-31 -47 -112 -18 -273 -138 -324 -242 -31 -64 -39 -173 -16 -227 41 -97 142
-156 245 -143 30 4 65 11 78 16 29 11 32 -12 4 -40 -10 -10 -24 -48 -31 -84
-18 -88 -22 -94 -54 -79 -14 6 -33 9 -41 6 -8 -4 -22 -1 -30 6 -29 24 -97 -14
-186 -104 -40 -40 -54 -63 -74 -128 -41 -131 -29 -206 40 -248 17 -10 71 -28
120 -40 120 -29 192 -23 243 21 27 24 42 30 65 26 57 -8 67 54 66 398 0 105
-3 213 -7 240 l-7 50 62 31 c34 18 79 45 100 61 21 17 53 38 71 47 34 18 160
36 247 36 59 0 104 23 158 83 43 48 48 64 44 127 -7 94 -27 111 -186 155 -122
34 -246 49 -347 42 -98 -7 -118 -3 -133 29 -15 35 -14 114 4 144 27 47 28 51
15 75 -18 33 -34 37 -60 13z m-173 -1300 c16 -50 9 -65 -37 -79 -55 -17 -70
-8 -70 42 0 54 23 81 64 77 26 -2 33 -9 43 -40z"/>
<path d="M1804 3945 c-12 -8 -27 -28 -34 -44 -15 -38 -6 -85 16 -77 9 3 27 6
40 6 17 0 24 6 24 19 0 11 12 29 26 40 25 20 26 22 10 46 -19 28 -51 32 -82
10z"/>
<path d="M2815 3840 c-64 -12 -140 -44 -178 -74 -35 -28 -56 -66 -76 -143 -7
-24 -16 -43 -21 -43 -12 0 -13 -44 -1 -90 5 -19 12 -48 15 -63 8 -33 76 -111
126 -142 24 -15 60 -25 107 -30 67 -6 74 -5 139 26 69 33 92 53 116 99 7 14
20 30 28 37 12 9 12 16 4 30 -17 28 -48 27 -85 -4 -29 -25 -41 -28 -100 -28
-41 0 -73 5 -80 12 -19 19 -5 26 59 31 32 3 68 12 83 23 14 9 43 19 65 21 29
2 41 9 49 25 7 16 15 21 29 17 17 -6 18 -2 12 42 -8 52 -68 180 -95 202 -28
23 -115 62 -136 61 -11 -1 -38 -5 -60 -9z m64 -182 c16 -16 18 -25 10 -35 -12
-14 -95 -18 -103 -5 -7 11 39 50 71 61 1 1 11 -9 22 -21z"/>
<path d="M3495 3831 c-41 -10 -92 -38 -139 -75 -25 -19 -41 -26 -43 -19 -9 26
-46 63 -63 63 -11 0 -25 -15 -38 -40 -18 -37 -19 -45 -6 -86 7 -25 16 -116 19
-202 3 -86 7 -158 10 -160 7 -7 43 8 69 29 49 38 64 106 38 170 -6 15 -14 42
-17 61 -6 31 -3 38 29 66 62 54 113 75 168 69 43 -5 48 -4 48 13 0 11 6 20 14
20 15 0 26 21 31 61 3 24 0 27 -33 33 -42 7 -46 7 -87 -3z"/>
<path d="M1429 3752 c-72 -35 -129 -99 -161 -185 -24 -63 -19 -85 32 -139 23
-23 39 -47 36 -54 -15 -38 151 -65 219 -36 29 12 82 89 70 101 -3 3 -40 4 -81
3 -83 -2 -124 14 -124 52 0 11 -4 27 -9 35 -13 20 5 84 30 104 25 20 77 22
104 3 11 -7 32 -16 47 -20 23 -5 30 -2 42 22 8 16 22 34 30 41 27 23 18 40
-34 66 -60 30 -146 33 -201 7z"/>
<path d="M1783 3732 c-33 -21 -43 -79 -42 -246 0 -97 4 -166 10 -166 5 0 9 5
9 10 0 6 8 10 18 10 19 0 57 66 66 115 3 17 8 75 11 131 5 92 4 103 -16 127
-21 28 -35 32 -56 19z"/>
<path d="M1276 3412 c-3 -6 -1 -14 5 -17 14 -9 20 -2 10 14 -6 8 -11 9 -15 3z"/>
<path d="M2644 3124 c-17 -8 -48 -32 -69 -54 l-37 -38 -44 33 c-62 47 -103 58
-203 53 -98 -5 -168 -33 -230 -93 -73 -71 -174 -82 -334 -34 -72 21 -79 21
-94 6 -15 -15 -14 -19 18 -49 20 -18 51 -41 70 -50 112 -55 318 -148 326 -148
6 0 22 -9 36 -20 38 -30 213 -40 286 -15 59 19 109 59 141 110 l21 34 36 -36
c20 -19 65 -49 101 -66 l65 -30 111 16 c132 18 234 62 327 139 33 27 81 59
107 71 45 21 59 44 36 59 -7 4 -65 8 -130 9 -161 3 -310 38 -394 95 -41 28
-100 31 -146 8z"/>
<path d="M1265 2630 c-10 -11 -20 -42 -23 -70 -4 -48 -14 -62 -27 -40 -3 6
-25 10 -48 10 -125 0 -202 -201 -98 -255 41 -21 84 -19 131 5 l40 20 0 -25 c0
-28 16 -32 44 -12 16 11 21 42 33 186 8 94 12 178 9 186 -8 21 -40 18 -61 -5z
m-51 -172 c7 -7 15 -34 18 -58 3 -25 7 -51 9 -59 3 -9 -8 -18 -27 -24 -61 -18
-112 39 -93 107 14 52 58 68 93 34z"/>
<path d="M3306 2601 c-20 -21 -26 -37 -26 -74 0 -41 -3 -47 -25 -53 -13 -3
-29 -12 -36 -20 -17 -20 8 -47 37 -40 27 7 34 -8 34 -77 0 -103 25 -147 83
-147 22 0 67 36 67 55 0 5 -12 19 -26 30 -23 18 -28 32 -33 92 -8 86 -6 93 24
93 37 0 75 18 75 35 0 15 -21 20 -72 16 -26 -2 -27 0 -30 50 -2 42 -7 53 -24
60 -17 6 -28 1 -48 -20z"/>
<path d="M2734 2592 c-28 -20 -39 -51 -44 -116 -4 -63 -7 -71 -26 -74 -12 -2
-32 -14 -45 -28 -19 -20 -21 -28 -12 -42 6 -9 17 -16 24 -14 70 17 66 20 71
-57 6 -77 25 -111 62 -111 29 0 39 9 59 50 16 35 16 35 -8 38 -24 3 -25 7 -25
69 0 62 1 65 29 76 35 13 68 64 53 79 -8 8 -21 6 -45 -6 -44 -20 -49 -20 -46
2 2 9 -1 42 -5 74 -7 53 -22 74 -42 60z"/>
<path d="M3614 2538 c-12 -5 -28 -22 -35 -37 -7 -14 -24 -39 -36 -54 -18 -23
-23 -41 -23 -88 0 -71 10 -94 47 -107 52 -17 87 -4 148 58 48 49 58 65 62 101
4 38 0 50 -26 87 -24 33 -38 42 -60 42 -16 0 -35 2 -43 4 -7 3 -23 0 -34 -6z
m56 -130 l20 -33 -21 -17 c-39 -33 -79 -17 -79 32 0 56 50 67 80 18z"/>
<path d="M1443 2507 c-53 -40 -93 -118 -93 -181 0 -53 37 -106 75 -106 13 0
27 -4 30 -10 18 -29 148 12 160 50 10 33 -2 39 -72 35 -62 -3 -93 5 -93 25 0
4 31 10 69 14 103 10 131 48 97 129 -13 33 -81 78 -114 76 -10 0 -36 -15 -59
-32z m86 -71 l23 -24 -43 9 c-50 12 -53 14 -44 28 11 18 40 12 64 -13z"/>
<path d="M3967 2516 c-45 -22 -47 -23 -63 -5 -24 26 -51 24 -70 -6 -14 -21
-15 -41 -9 -127 3 -57 9 -111 11 -120 5 -17 34 -26 34 -10 0 4 11 20 25 36 19
22 25 40 25 77 0 46 3 50 39 75 30 19 44 23 58 16 13 -8 24 -5 41 8 30 25 28
47 -8 65 -36 19 -28 19 -83 -9z"/>
<path d="M1815 2500 c-106 -26 -145 -69 -145 -162 0 -49 4 -60 30 -86 26 -27
35 -30 72 -25 26 4 58 18 79 34 20 16 40 29 43 29 15 0 4 -60 -17 -91 -18 -26
-31 -35 -58 -37 -23 -2 -40 2 -49 12 -19 23 -36 19 -59 -13 -30 -41 -27 -85 5
-110 15 -12 33 -21 41 -21 21 0 103 39 103 49 0 5 18 36 40 69 71 106 95 210
66 285 -25 66 -73 87 -151 67z m23 -69 c9 -5 30 -14 46 -20 26 -11 28 -14 21
-49 -8 -45 -5 -42 -49 -49 -22 -3 -42 -1 -51 7 -17 14 -20 72 -5 101 12 22 14
22 38 10z"/>
<path d="M2471 2490 c-104 -48 -164 -124 -141 -181 15 -36 33 -42 82 -28 22 5
46 8 54 5 20 -8 17 -39 -6 -64 -17 -17 -25 -20 -40 -12 -10 5 -22 10 -27 10
-34 -2 -67 -72 -39 -83 16 -7 32 -1 117 36 52 23 109 95 109 138 0 26 -27 59
-48 59 -19 0 -14 18 6 24 10 4 31 19 45 34 l27 28 -20 22 c-12 12 -27 22 -35
22 -7 0 -19 2 -27 5 -7 2 -33 -4 -57 -15z m39 -94 c0 -8 -14 -15 -35 -18 -41
-5 -49 0 -34 19 15 18 69 17 69 -1z"/>
<path d="M2038 2483 c-26 -30 -38 -60 -38 -96 0 -38 24 -103 48 -129 17 -20
75 -24 118 -8 36 14 36 14 43 -58 2 -22 45 -9 58 18 6 14 14 73 17 131 5 111
-5 149 -39 149 -18 0 -45 -51 -45 -85 0 -40 -18 -65 -45 -65 -31 0 -45 26 -45
82 0 50 -7 63 -36 72 -14 4 -26 0 -36 -11z"/>
<path d="M3015 2465 c-51 -18 -110 -81 -126 -133 -17 -58 -5 -105 36 -141 29
-25 41 -29 68 -24 40 7 87 39 87 59 0 8 6 14 14 14 10 0 17 -17 21 -55 4 -30
10 -55 14 -55 23 1 33 24 37 86 2 38 6 101 10 139 6 65 5 72 -18 92 -31 29
-92 37 -143 18z m73 -132 c3 -45 1 -50 -23 -61 -38 -18 -63 -15 -76 9 -16 31
-2 85 28 109 23 18 29 19 47 7 16 -11 22 -27 24 -64z"/>
<path d="M1953 1973 c-4 -10 -41 -83 -84 -163 -42 -80 -82 -163 -89 -185 -7
-22 -18 -47 -24 -55 -6 -8 -27 -49 -46 -90 -19 -41 -38 -77 -42 -80 -4 -3 -17
-27 -28 -52 -11 -26 -25 -50 -30 -53 -6 -3 -10 -14 -10 -23 -1 -9 -22 -61 -49
-115 -40 -84 -46 -104 -42 -140 5 -31 12 -45 31 -54 21 -10 26 -10 28 1 2 8
11 16 20 18 10 3 38 44 63 94 25 49 83 163 130 254 47 91 102 201 122 245 21
44 53 107 73 140 19 33 44 80 54 105 11 25 24 53 30 62 14 24 13 34 -6 74 -14
30 -21 34 -55 34 -29 0 -41 -5 -46 -17z"/>
<path d="M2980 1957 c-47 -24 -36 -51 126 -321 34 -55 88 -144 121 -196 33
-52 80 -133 104 -180 25 -47 53 -97 63 -112 10 -16 14 -28 9 -28 -5 0 -24 25
-42 55 -18 30 -51 75 -72 99 -21 24 -52 73 -69 109 -17 36 -34 68 -39 71 -5 3
-12 17 -15 31 -9 36 -109 214 -176 315 -61 91 -90 114 -136 108 -26 -3 -29 -7
-32 -46 -4 -49 29 -115 129 -262 32 -47 93 -157 136 -245 98 -199 227 -424
256 -447 27 -22 66 -23 73 -3 4 8 12 15 20 15 23 0 18 98 -6 135 -22 34 -25
45 -10 45 6 0 10 -7 10 -15 0 -26 85 -103 126 -114 41 -11 63 2 42 26 -13 16
-3 43 17 43 19 0 19 9 1 29 -7 9 -46 70 -85 136 -38 66 -83 140 -98 165 -15
25 -33 60 -39 78 -12 34 -169 312 -231 410 -37 57 -104 112 -137 112 -12 0
-32 -6 -46 -13z"/>
<path d="M2137 1913 c-8 -10 -37 -61 -63 -113 -25 -52 -68 -131 -94 -175 -26
-44 -58 -105 -71 -135 -13 -30 -33 -71 -44 -90 -12 -19 -59 -109 -105 -200
-45 -91 -87 -174 -93 -185 -56 -105 -66 -148 -43 -193 16 -32 76 -72 76 -52 0
6 11 27 23 48 46 72 113 198 147 272 18 41 52 104 75 140 23 36 54 91 69 122
16 31 34 62 42 69 8 6 14 17 14 23 0 17 52 149 95 241 20 44 41 90 46 103 5
12 13 22 19 22 6 0 15 11 20 25 12 31 -10 71 -43 80 -12 4 -29 9 -38 11 -9 2
-23 -4 -32 -13z"/>
<path d="M2307 1873 c-4 -3 -7 -13 -7 -21 0 -9 -6 -23 -14 -31 -19 -21 -75
-123 -133 -241 -25 -52 -83 -169 -128 -260 -45 -91 -85 -174 -88 -185 -3 -11
-24 -53 -46 -93 -22 -40 -47 -94 -57 -120 -10 -26 -37 -78 -62 -115 -41 -64
-44 -71 -37 -115 11 -76 22 -87 97 -106 22 -5 28 -2 34 16 3 13 12 30 18 38 7
8 20 40 30 70 10 30 33 82 51 115 33 60 74 154 101 232 8 23 45 104 83 180 37
76 71 152 75 168 4 17 20 57 36 90 68 144 108 233 119 267 7 21 21 40 31 43
21 7 18 27 -8 58 -15 17 -81 24 -95 10z"/>
<path d="M2657 1869 c-15 -9 -17 -18 -13 -44 8 -38 130 -306 275 -600 54 -110
118 -240 142 -290 25 -50 56 -98 70 -108 25 -18 29 -18 55 -4 16 9 41 18 56
21 25 6 27 8 17 34 -16 42 -19 62 -8 62 6 0 -4 26 -22 58 -17 31 -45 82 -61
112 -17 30 -33 57 -38 60 -4 3 -12 21 -19 42 -7 20 -18 39 -26 42 -8 3 -15 14
-15 25 0 11 -4 23 -10 26 -5 3 -10 14 -10 24 0 9 -8 26 -18 37 -29 32 -117
185 -142 249 -14 33 -40 89 -58 125 -19 36 -41 79 -50 97 -21 42 -81 57 -125
32z"/>
<path d="M3415 871 c-111 -53 -125 -90 -59 -156 41 -42 44 -48 44 -98 0 -55
-27 -112 -60 -127 -8 -4 -25 -12 -37 -18 -33 -17 -58 -15 -105 9 -45 23 -88
19 -88 -9 1 -32 55 -116 88 -135 18 -11 66 -28 107 -38 l74 -19 58 27 c70 33
140 101 176 168 l15 29 33 -47 c38 -54 53 -57 124 -26 45 20 46 21 30 39 -11
12 -15 28 -12 41 6 22 -8 50 -95 198 -16 25 -32 57 -38 71 -33 83 -69 112
-142 116 -42 3 -66 -3 -113 -25z"/>
<path d="M1265 870 c-60 -38 -95 -108 -95 -190 0 -67 21 -110 81 -164 56 -50
198 -126 236 -126 29 0 29 -3 -7 -55 -16 -24 -30 -47 -30 -52 0 -4 22 -18 49
-31 42 -19 54 -20 75 -11 14 7 26 20 26 30 0 9 4 19 9 21 5 2 46 46 90 98 69
81 81 100 81 131 0 21 -8 45 -17 56 -36 40 -139 121 -163 128 -14 4 -28 12
-31 17 -4 6 -22 -9 -40 -32 -43 -54 -76 -70 -139 -70 -43 0 -55 4 -75 28 -24
27 -32 87 -13 98 4 3 8 14 8 25 0 11 9 37 19 58 31 59 -3 80 -64 41z"/>
</g>
</svg>
